# 3ds Max Wavefront OBJ Exporter v0.97b - (c)2007 guruware
# File Created: 21.04.2020 16:32:20

mtllib bomenlinks.mtl

#
# object Plane002
#

v  -16.3833 5.7505 10.4843
v  -16.3833 5.7505 16.1061
v  -16.3833 0.1287 16.1061
v  -16.3833 0.1287 10.4843
# 4 vertices

vn 1.0000 0.0000 -0.0000
# 1 vertex normals

vt 1.0000 1.0000 0.0000
vt -0.0000 1.0000 0.0000
vt -0.0000 0.0000 0.0000
vt 1.0000 0.0000 0.0000
# 4 texture coords

g Plane002
usemtl 17___Default
s 1
f 1/1/1 2/2/1 3/3/1 4/4/1 
# 1 polygons

#
# object Plane003
#

v  17.4935 7.7436 10.2054
v  14.6120 7.7436 16.3850
v  14.6120 0.9252 16.3850
v  17.4935 0.9252 10.2054
# 4 vertices

vn 0.9063 0.0000 0.4226
# 1 vertex normals

vt 1.0000 1.0000 0.0000
vt -0.0000 1.0000 0.0000
vt -0.0000 0.0000 0.0000
vt 1.0000 0.0000 0.0000
# 4 texture coords

g Plane003
usemtl 17___Default
s 1
f 5/5/2 6/6/2 7/7/2 8/8/2 
# 1 polygons

#
# object Plane004
#

v  19.3508 6.6253 13.7028
v  16.9749 6.6253 18.7979
v  16.9749 1.0035 18.7979
v  19.3508 1.0035 13.7028
# 4 vertices

vn 0.9063 0.0000 0.4226
# 1 vertex normals

vt 1.0000 1.0000 0.0000
vt -0.0000 1.0000 0.0000
vt -0.0000 0.0000 0.0000
vt 1.0000 0.0000 0.0000
# 4 texture coords

g Plane004
usemtl 17___Default
s 1
f 9/9/3 10/10/3 11/11/3 12/12/3 
# 1 polygons

#
# object Plane005
#

v  9.9711 7.8352 15.3613
v  9.3769 7.8352 22.1537
v  9.3769 1.0168 22.1537
v  9.9711 1.0168 15.3613
# 4 vertices

vn 0.9962 0.0000 0.0872
# 1 vertex normals

vt 1.0000 1.0000 0.0000
vt -0.0000 1.0000 0.0000
vt -0.0000 0.0000 0.0000
vt 1.0000 0.0000 0.0000
# 4 texture coords

g Plane005
usemtl 17___Default
s 1
f 13/13/4 14/14/4 15/15/4 16/16/4 
# 1 polygons

#
# object Plane012
#

v  12.3206 8.5609 16.1820
v  13.0414 8.5609 24.4203
v  13.0414 0.2912 24.4203
v  12.3206 0.2912 16.1820
# 4 vertices

vn 0.9962 0.0000 -0.0872
# 1 vertex normals

vt 1.0000 1.0000 0.0000
vt -0.0000 1.0000 0.0000
vt -0.0000 0.0000 0.0000
vt 1.0000 0.0000 0.0000
# 4 texture coords

g Plane012
usemtl 17___Default
s 1
f 17/17/5 18/18/5 19/19/5 20/20/5 
# 1 polygons

#
# object Plane013
#

v  6.8911 7.7518 19.0733
v  6.2968 7.7518 25.8658
v  6.2968 0.9334 25.8658
v  6.8911 0.9334 19.0733
# 4 vertices

vn 0.9962 0.0000 0.0872
# 1 vertex normals

vt 1.0000 1.0000 0.0000
vt -0.0000 1.0000 0.0000
vt -0.0000 0.0000 0.0000
vt 1.0000 0.0000 0.0000
# 4 texture coords

g Plane013
usemtl 17___Default
s 1
f 21/21/6 22/22/6 23/23/6 24/24/6 
# 1 polygons

#
# object Plane014
#

v  1.6862 7.7518 18.8627
v  1.0919 7.7518 25.6551
v  1.0919 0.9334 25.6551
v  1.6862 0.9334 18.8627
# 4 vertices

vn 0.9962 0.0000 0.0872
# 1 vertex normals

vt 1.0000 1.0000 0.0000
vt -0.0000 1.0000 0.0000
vt -0.0000 0.0000 0.0000
vt 1.0000 0.0000 0.0000
# 4 texture coords

g Plane014
usemtl 17___Default
s 1
f 25/25/7 26/26/7 27/27/7 28/28/7 
# 1 polygons

#
# object Plane015
#

v  1.9387 7.7518 9.4796
v  1.3444 7.7518 16.2721
v  1.3444 0.9334 16.2721
v  1.9387 0.9334 9.4796
# 4 vertices

vn 0.9962 0.0000 0.0872
# 1 vertex normals

vt 1.0000 1.0000 0.0000
vt -0.0000 1.0000 0.0000
vt -0.0000 0.0000 0.0000
vt 1.0000 0.0000 0.0000
# 4 texture coords

g Plane015
usemtl 17___Default
s 1
f 29/29/8 30/30/8 31/31/8 32/32/8 
# 1 polygons

#
# object Plane016
#

v  1.5340 7.7518 14.1057
v  0.9397 7.7518 20.8982
v  0.9397 0.9334 20.8982
v  1.5340 0.9334 14.1057
# 4 vertices

vn 0.9962 0.0000 0.0872
# 1 vertex normals

vt 1.0000 1.0000 0.0000
vt -0.0000 1.0000 0.0000
vt -0.0000 0.0000 0.0000
vt 1.0000 0.0000 0.0000
# 4 texture coords

g Plane016
usemtl 17___Default
s 1
f 33/33/9 34/34/9 35/35/9 36/36/9 
# 1 polygons

#
# object Plane017
#

v  21.3648 7.7436 7.8765
v  18.4832 7.7436 14.0561
v  18.4832 0.9252 14.0561
v  21.3648 0.9252 7.8765
# 4 vertices

vn 0.9063 0.0000 0.4226
# 1 vertex normals

vt 1.0000 1.0000 0.0000
vt -0.0000 1.0000 0.0000
vt -0.0000 0.0000 0.0000
vt 1.0000 0.0000 0.0000
# 4 texture coords

g Plane017
usemtl 17___Default
s 1
f 37/37/10 38/38/10 39/39/10 40/40/10 
# 1 polygons

#
# object Plane018
#

v  20.1342 9.7108 16.4745
v  27.6337 9.7108 22.7673
v  27.6337 -0.0791 22.7673
v  20.1342 -0.0791 16.4745
# 4 vertices

vn 0.6428 0.0000 -0.7660
# 1 vertex normals

vt 1.0000 1.0000 0.0000
vt -0.0000 1.0000 0.0000
vt -0.0000 0.0000 0.0000
vt 1.0000 0.0000 0.0000
# 4 texture coords

g Plane018
usemtl 17___Default
s 1
f 41/41/11 42/42/11 43/43/11 44/44/11 
# 1 polygons

#
# object Plane019
#

v  31.1610 9.3210 13.5262
v  21.5199 9.3210 15.2262
v  21.5199 -0.4689 15.2262
v  31.1610 -0.4689 13.5262
# 4 vertices

vn 0.1736 0.0000 0.9848
# 1 vertex normals

vt 1.0000 1.0000 0.0000
vt -0.0000 1.0000 0.0000
vt -0.0000 0.0000 0.0000
vt 1.0000 0.0000 0.0000
# 4 texture coords

g Plane019
usemtl 17___Default
s 1
f 45/45/12 46/46/12 47/47/12 48/48/12 
# 1 polygons

#
# object Plane020
#

v  14.8942 8.2108 10.1978
v  11.5299 8.2108 17.4126
v  11.5299 0.2502 17.4126
v  14.8942 0.2502 10.1978
# 4 vertices

vn 0.9063 0.0000 0.4226
# 1 vertex normals

vt 1.0000 1.0000 0.0000
vt -0.0000 1.0000 0.0000
vt -0.0000 0.0000 0.0000
vt 1.0000 0.0000 0.0000
# 4 texture coords

g Plane020
usemtl 17___Default
s 1
f 49/49/13 50/50/13 51/51/13 52/52/13 
# 1 polygons

#
# object Plane021
#

v  16.2333 6.6253 21.4872
v  15.2571 6.6253 15.9508
v  15.2571 1.0035 15.9508
v  16.2333 1.0035 21.4872
# 4 vertices

vn 0.9848 -0.0000 -0.1736
# 1 vertex normals

vt 1.0000 1.0000 0.0000
vt -0.0000 1.0000 0.0000
vt -0.0000 0.0000 0.0000
vt 1.0000 0.0000 0.0000
# 4 texture coords

g Plane021
usemtl 17___Default
s 1
f 56/56/14 55/55/14 54/54/14 53/53/14 
# 1 polygons

#
# object Plane023
#

v  14.2133 7.7436 -4.7263
v  20.3929 7.7436 -7.6079
v  20.3929 0.9252 -7.6079
v  14.2133 0.9252 -4.7263
# 4 vertices

vn 0.4226 -0.0000 0.9063
# 1 vertex normals

vt 1.0000 1.0000 0.0000
vt -0.0000 1.0000 0.0000
vt -0.0000 0.0000 0.0000
vt 1.0000 0.0000 0.0000
# 4 texture coords

g Plane023
usemtl 17___Default
s 1
f 60/60/15 59/59/15 58/58/15 57/57/15 
# 1 polygons

#
# object Plane024
#

v  17.8480 6.6253 -8.6821
v  23.4484 6.6253 -9.1720
v  23.4484 1.0035 -9.1720
v  17.8480 1.0035 -8.6821
# 4 vertices

vn 0.0872 -0.0000 0.9962
# 1 vertex normals

vt 1.0000 1.0000 0.0000
vt -0.0000 1.0000 0.0000
vt -0.0000 0.0000 0.0000
vt 1.0000 0.0000 0.0000
# 4 texture coords

g Plane024
usemtl 17___Default
s 1
f 64/64/16 63/63/16 62/62/16 61/61/16 
# 1 polygons

#
# object Plane025
#

v  12.4101 7.8352 -8.7553
v  12.4101 7.8352 -15.5737
v  12.4101 1.0168 -15.5737
v  12.4101 1.0168 -8.7553
# 4 vertices

vn 1.0000 -0.0000 -0.0000
# 1 vertex normals

vt 1.0000 1.0000 0.0000
vt -0.0000 1.0000 0.0000
vt -0.0000 0.0000 0.0000
vt 1.0000 0.0000 0.0000
# 4 texture coords

g Plane025
usemtl 17___Default
s 1
f 68/68/17 67/67/17 66/66/17 65/65/17 
# 1 polygons

#
# object Plane026
#

v  14.8222 8.5609 -9.3682
v  16.2583 8.5609 -17.5123
v  16.2583 0.2912 -17.5123
v  14.8222 0.2912 -9.3682
# 4 vertices

vn 0.9848 -0.0000 0.1736
# 1 vertex normals

vt 1.0000 1.0000 0.0000
vt -0.0000 1.0000 0.0000
vt -0.0000 0.0000 0.0000
vt 1.0000 0.0000 0.0000
# 4 texture coords

g Plane026
usemtl 17___Default
s 1
f 72/72/18 71/71/18 70/70/18 69/69/18 
# 1 polygons

#
# object Plane027
#

v  9.6653 7.7518 -12.7217
v  9.6653 7.7518 -19.5401
v  9.6653 0.9334 -19.5401
v  9.6653 0.9334 -12.7217
# 4 vertices

vn 1.0000 -0.0000 -0.0000
# 1 vertex normals

vt 1.0000 1.0000 0.0000
vt -0.0000 1.0000 0.0000
vt -0.0000 0.0000 0.0000
vt 1.0000 0.0000 0.0000
# 4 texture coords

g Plane027
usemtl 17___Default
s 1
f 76/76/19 75/75/19 74/74/19 73/73/19 
# 1 polygons

#
# object Plane028
#

v  4.4619 7.7518 -12.9655
v  4.4619 7.7518 -19.7839
v  4.4619 0.9334 -19.7839
v  4.4619 0.9334 -12.9655
# 4 vertices

vn 1.0000 -0.0000 -0.0000
# 1 vertex normals

vt 1.0000 1.0000 0.0000
vt -0.0000 1.0000 0.0000
vt -0.0000 0.0000 0.0000
vt 1.0000 0.0000 0.0000
# 4 texture coords

g Plane028
usemtl 17___Default
s 1
f 80/80/20 79/79/20 78/78/20 77/77/20 
# 1 polygons

#
# object Plane031
#

v  19.2989 7.7436 -2.6273
v  25.8849 7.7436 -4.3921
v  25.8849 0.9252 -4.3921
v  19.2989 0.9252 -2.6273
# 4 vertices

vn 0.2588 -0.0000 0.9659
# 1 vertex normals

vt 1.0000 1.0000 0.0000
vt -0.0000 1.0000 0.0000
vt -0.0000 0.0000 0.0000
vt 1.0000 0.0000 0.0000
# 4 texture coords

g Plane031
usemtl 17___Default
s 1
f 84/84/21 83/83/21 82/82/21 81/81/21 
# 1 polygons

#
# object Plane035
#

v  19.1824 6.6253 -14.3122
v  17.7273 6.6253 -8.8819
v  17.7273 1.0035 -8.8819
v  19.1824 1.0035 -14.3122
# 4 vertices

vn 0.9659 -0.0000 0.2588
# 1 vertex normals

vt 1.0000 1.0000 0.0000
vt -0.0000 1.0000 0.0000
vt -0.0000 0.0000 0.0000
vt 1.0000 0.0000 0.0000
# 4 texture coords

g Plane035
usemtl 17___Default
s 1
f 85/85/22 86/86/22 87/87/22 88/88/22 
# 1 polygons

