# 3ds Max Wavefront OBJ Exporter v0.97b - (c)2007 guruware
# File Created: 22.04.2020 12:24:54

mtllib boomlinks.mtl

#
# object boomlinks001
#

v  23.2714 9.8430 12.4706
v  32.7277 9.8430 15.0044
v  32.7277 0.0532 15.0044
v  23.2714 0.0531 12.4706
# 4 vertices

vn -0.2588 -0.0000 0.9659
# 1 vertex normals

vt -0.0000 1.0000 0.0000
vt 1.0000 1.0000 0.0000
vt 1.0000 0.0000 0.0000
vt -0.0000 0.0000 0.0000
# 4 texture coords

g boomlinks001
usemtl 17___Default
s off
f 4/4/1 3/3/1 2/2/1 1/1/1 
# 1 polygons

#
# object boomlinks
#

v  21.5060 10.9088 16.0757
v  27.7988 10.9088 23.5752
v  27.7988 1.1190 23.5752
v  21.5060 1.1189 16.0757
# 4 vertices

vn 0.7660 0.0000 -0.6428
# 1 vertex normals

vt -0.0000 1.0000 0.0000
vt 1.0000 1.0000 0.0000
vt 1.0000 0.0000 0.0000
vt -0.0000 0.0000 0.0000
# 4 texture coords

g boomlinks
usemtl 17___Default
s off
f 5/5/2 6/6/2 7/7/2 8/8/2 
# 1 polygons

