# 3ds Max Wavefront OBJ Exporter v0.97b - (c)2007 guruware
# File Created: 12.05.2020 20:09:22

mtllib dioramaglasbuiten.mtl

#
# object DisplayOuter001
#

v  1.0560 0.3932 0.4923
v  0.1016 0.3932 1.1607
v  0.1016 -0.3932 1.1607
v  1.0560 -0.3932 0.4923
v  -0.9544 0.3932 0.6682
v  -1.0559 0.3932 -0.4925
v  -1.0559 -0.3932 -0.4925
v  -0.9544 -0.3932 0.6682
v  0.9544 -0.3932 -0.6683
v  0.9544 0.3932 -0.6683
v  -0.1015 0.3932 -1.1607
v  -0.1015 -0.3932 -1.1607
# 12 vertices

vn 0.5736 0.0000 0.8191
vn -0.9962 0.0000 0.0872
vn -0.4226 0.0000 0.9063
vn 0.9962 0.0000 -0.0872
vn -0.5736 0.0000 -0.8191
vn 0.4226 0.0000 -0.9063
# 6 vertex normals

vt 0.4894 0.3271 0.0000
vt 0.0049 0.3271 0.0000
vt 0.0049 0.0000 0.0000
vt 0.4894 0.0000 0.0000
vt 0.9770 0.3271 0.0000
vt 0.4925 0.3271 0.0000
vt 0.4925 0.0000 0.0000
vt 0.9770 0.0000 0.0000
vt 0.4846 0.6587 0.0000
vt 0.0000 0.6587 0.0000
vt 0.0000 0.3316 0.0000
vt 0.4846 0.3316 0.0000
vt 0.4876 0.6684 0.0000
vt 0.4876 0.3413 0.0000
vt 0.9721 0.3413 0.0000
vt 0.9721 0.6684 0.0000
vt 0.4974 1.0000 0.0000
vt 0.4974 0.6729 0.0000
vt 0.9819 0.6729 0.0000
vt 0.9819 1.0000 0.0000
vt 0.0000 0.9902 0.0000
vt 0.0000 0.6631 0.0000
vt 0.4846 0.6631 0.0000
vt 0.4846 0.9902 0.0000
# 24 texture coords

g DisplayOuter001
usemtl 01___Default
s 1
f 1/1/1 2/2/1 3/3/1 4/4/1 
f 5/5/2 6/6/2 7/7/2 8/8/2 
s 2
f 2/9/3 5/10/3 8/11/3 3/12/3 
f 1/13/4 4/14/4 9/15/4 10/16/4 
f 11/17/5 12/18/5 7/19/5 6/20/5 
s 1
f 10/21/6 9/22/6 12/23/6 11/24/6 
# 6 polygons

