# 3ds Max Wavefront OBJ Exporter v0.97b - (c)2007 guruware
# File Created: 22.04.2020 17:46:15

mtllib display.mtl

#
# object display004
#

v  29.6309 6.6823 18.2921
v  27.5606 6.6823 17.3268
v  27.6601 6.6823 18.4646
v  28.6953 6.6823 18.9473
v  29.7404 6.5562 18.3432
v  29.7168 6.5562 18.3322
v  28.7036 6.5562 19.0416
v  28.7058 6.5562 19.0677
v  27.5612 6.5562 18.5339
v  27.5826 6.5562 18.5189
v  27.4748 6.5562 17.2867
v  27.4511 6.5562 17.2757
v  29.7168 6.6062 18.3322
v  28.7036 6.6062 19.0416
v  27.5826 6.6062 18.5189
v  27.4748 6.6062 17.2867
v  28.7058 5.9280 19.0677
v  29.7404 5.9280 18.3432
v  29.7404 6.3458 18.3432
v  28.7058 6.3458 19.0677
v  27.4511 5.9280 17.2757
v  27.5612 5.9280 18.5339
v  27.5612 6.3458 18.5339
v  27.4511 6.3458 17.2757
v  29.6309 6.6051 18.2921
v  28.6953 6.6051 18.9473
v  27.6601 6.6051 18.4646
v  27.5606 6.6051 17.3268
v  27.6601 7.3077 18.4646
v  27.5606 7.3077 17.3268
v  29.6309 7.3077 18.2921
v  28.6953 7.3077 18.9473
v  28.7036 7.4338 19.0416
v  29.7168 7.4338 18.3322
v  29.7404 7.4338 18.3432
v  28.7058 7.4338 19.0677
v  27.4748 7.4338 17.2867
v  27.5826 7.4338 18.5189
v  27.5612 7.4338 18.5339
v  27.4511 7.4338 17.2757
v  28.7036 7.3838 19.0416
v  29.7168 7.3838 18.3322
v  27.4748 7.3838 17.2867
v  27.5826 7.3838 18.5189
v  29.7404 7.6453 18.3432
v  28.7058 7.6453 19.0677
v  27.5612 7.6453 18.5339
v  27.4511 7.6453 17.2757
v  28.6953 7.3849 18.9473
v  29.6309 7.3849 18.2921
v  27.5606 7.3849 17.3268
v  27.6601 7.3849 18.4646
v  29.7404 7.8567 18.3432
v  27.4511 7.8567 17.2757
v  27.5612 7.8567 18.5339
v  28.7058 7.8567 19.0677
v  28.7776 6.6562 18.9898
v  28.7776 7.3338 18.9898
v  29.6427 6.6562 18.3841
v  29.6427 7.3338 18.3841
v  27.4826 6.6562 17.3768
v  27.4826 7.3338 17.3768
v  27.5746 6.6562 18.4288
v  27.5746 7.3338 18.4288
v  27.6645 6.6562 18.5571
v  27.6645 7.3338 18.5571
v  28.6216 6.6562 19.0034
v  28.6216 7.3338 19.0034
v  28.6972 6.6062 18.9688
v  28.6972 7.3838 18.9688
v  28.7414 7.3338 18.9379
v  28.7414 6.6562 18.9379
v  29.6505 6.6062 18.3013
v  29.6064 6.6562 18.3322
v  29.6505 7.3838 18.3013
v  29.6064 7.3338 18.3322
v  27.5410 6.6062 17.3176
v  27.5410 7.3838 17.3176
v  27.5457 7.3338 17.3713
v  27.5457 6.6562 17.3713
v  27.6424 6.6062 18.4770
v  27.6377 6.6562 18.4233
v  27.6424 7.3838 18.4770
v  27.6377 7.3338 18.4233
v  27.6913 7.3338 18.4998
v  27.6913 6.6562 18.4998
v  28.6483 6.6562 18.9461
v  28.6483 7.3338 18.9461
v  28.7058 5.7177 19.0677
v  29.7404 5.7177 18.3432
v  27.4511 5.7177 17.2757
v  27.5612 5.7177 18.5339
v  28.4962 6.6823 16.6717
v  29.5313 6.6823 17.1544
v  29.6090 6.5562 17.1000
v  29.6304 6.5562 17.0850
v  28.4879 6.5562 16.5773
v  28.4857 6.5562 16.5512
v  29.6090 6.6062 17.1000
v  28.4879 6.6062 16.5773
v  29.6304 5.9280 17.0850
v  29.6304 6.3458 17.0850
v  28.4857 6.3458 16.5512
v  28.4857 5.9280 16.5512
v  29.5313 6.6051 17.1544
v  28.4962 6.6051 16.6717
v  29.6308 7.3077 18.2922
v  28.4962 7.3077 16.6717
v  29.5313 7.3077 17.1544
v  29.7404 7.4338 18.3433
v  29.6090 7.4338 17.1000
v  29.6304 7.4338 17.0850
v  28.4857 7.4338 16.5512
v  28.4879 7.4338 16.5773
v  27.4747 7.4338 17.2868
v  27.4510 7.4338 17.2757
v  29.6090 7.3838 17.1000
v  28.4879 7.3838 16.5773
v  27.4747 7.3838 17.2868
v  29.6304 7.6453 17.0850
v  29.7404 7.6453 18.3433
v  27.4510 7.6453 17.2757
v  28.4857 7.6453 16.5512
v  29.6308 7.3849 18.2922
v  29.5313 7.3849 17.1544
v  28.4962 7.3849 16.6717
v  28.4857 7.8567 16.5512
v  27.4510 7.8567 17.2757
v  29.7404 7.8567 18.3433
v  29.6304 7.8567 17.0850
v  29.6168 7.3338 17.1901
v  29.6168 6.6562 17.1901
v  29.7089 6.6562 18.2421
v  29.7089 7.3338 18.2421
v  27.5488 7.3338 17.2348
v  27.5488 6.6562 17.2348
v  28.4138 6.6562 16.6291
v  28.4138 7.3338 16.6291
v  28.5699 7.3338 16.6155
v  28.5699 6.6562 16.6155
v  29.5270 6.6562 17.0618
v  29.5270 7.3338 17.0618
v  29.5538 7.3338 17.1957
v  29.5491 7.3838 17.1419
v  29.5491 6.6062 17.1419
v  29.5538 6.6562 17.1957
v  29.6458 6.6562 18.2476
v  29.6458 7.3338 18.2476
v  27.5851 7.3338 17.2867
v  27.5851 6.6562 17.2867
v  28.4943 6.6062 16.6501
v  28.4502 6.6562 16.6810
v  28.4943 7.3838 16.6501
v  28.4502 7.3338 16.6810
v  28.5432 7.3338 16.6729
v  28.5432 6.6562 16.6729
v  29.5002 6.6562 17.1192
v  29.5002 7.3338 17.1192
v  29.6304 5.7177 17.0850
v  28.4857 5.7177 16.5512
# 160 vertices

vn 0.0000 1.0000 -0.0000
vn 0.5736 0.0000 0.8191
vn -0.9962 0.0000 0.0872
vn -0.4226 0.0000 0.9063
vn -0.0114 0.9998 -0.0162
vn 0.0198 0.9998 -0.0017
vn 0.0084 0.9998 -0.0180
vn 0.0000 -1.0000 -0.0000
vn -0.0114 -0.9998 -0.0162
vn 0.0198 -0.9998 -0.0017
vn 0.0084 -0.9998 -0.0180
vn -0.5736 0.0000 -0.8191
vn 0.9962 0.0000 -0.0872
vn 0.4226 0.0000 -0.9063
vn 0.8191 0.0000 -0.5736
vn -0.8191 0.0000 0.5736
vn 0.0872 0.0000 0.9962
vn -0.0872 0.0000 -0.9962
vn 0.9063 0.0000 0.4226
vn -0.9063 0.0000 -0.4226
vn -0.0198 0.9998 0.0017
vn 0.0114 0.9998 0.0162
vn -0.0084 0.9998 0.0180
vn -0.0198 -0.9998 0.0017
vn 0.0114 -0.9998 0.0162
vn -0.0084 -0.9998 0.0180
# 26 vertex normals

vt 0.8411 0.4344 -1.3436
vt 0.8411 0.1332 -1.3436
vt 0.9716 0.2085 -1.3436
vt 0.9716 0.3591 -1.3436
vt 0.5056 0.5243 -1.3436
vt 0.5087 0.5243 -1.3436
vt 0.5825 0.6520 -1.3436
vt 0.5809 0.6547 -1.3436
vt 0.7316 0.6547 -1.3436
vt 0.7300 0.6520 -1.3436
vt 0.8037 0.5243 -1.3436
vt 0.8069 0.5243 -1.3436
vt 0.8175 0.2873 -1.3436
vt 0.8175 0.2948 -1.3436
vt 0.7153 0.2948 -1.3436
vt 0.7153 0.2873 -1.3436
vt 0.6131 0.2873 -1.3436
vt 0.6131 0.2948 -1.3436
vt 0.5109 0.2948 -1.3436
vt 0.5109 0.2873 -1.3436
vt 0.7182 0.1882 -1.3436
vt 0.8262 0.1882 -1.3436
vt 0.8262 0.2528 -1.3436
vt 0.7182 0.2528 -1.3436
vt 0.5022 0.1882 -1.3436
vt 0.6102 0.1882 -1.3436
vt 0.6102 0.2528 -1.3436
vt 0.5022 0.2528 -1.3436
vt 0.5061 0.5499 -1.3436
vt 0.5176 0.5499 -1.3436
vt 0.5871 0.6703 -1.3436
vt 0.5814 0.6803 -1.3436
vt 0.7320 0.6803 -1.3436
vt 0.7262 0.6703 -1.3436
vt 0.7957 0.5499 -1.3436
vt 0.8073 0.5499 -1.3436
vt 0.8185 0.2957 -1.3436
vt 0.8185 0.3083 -1.3436
vt 0.7156 0.3083 -1.3436
vt 0.7156 0.2957 -1.3436
vt 0.6128 0.2957 -1.3436
vt 0.6128 0.3083 -1.3436
vt 0.5099 0.3083 -1.3436
vt 0.5099 0.2957 -1.3436
vt 0.7317 0.6406 1.3436
vt 0.8070 0.5101 1.3436
vt 0.5058 0.5101 1.3436
vt 0.5811 0.6406 1.3436
vt 0.8232 0.4718 -1.3436
vt 0.7172 0.4718 -1.3436
vt 0.7172 0.4397 -1.3436
vt 0.8232 0.4397 -1.3436
vt 0.6112 0.4718 -1.3436
vt 0.5052 0.4718 -1.3436
vt 0.5052 0.4397 -1.3436
vt 0.6112 0.4397 -1.3436
vt 0.9794 0.3633 -1.3436
vt 0.9794 0.7174 -1.3436
vt 0.8260 0.6313 -1.3436
vt 0.8260 0.4542 -1.3436
vt 0.7204 0.3095 -1.3436
vt 0.7286 0.3178 -1.3436
vt 0.7287 0.4293 -1.3436
vt 0.7205 0.4376 -1.3436
vt 0.8329 0.3095 -1.3436
vt 0.8247 0.3177 -1.3436
vt 0.8331 0.4374 -1.3436
vt 0.8248 0.4293 -1.3436
vt 0.4953 0.3100 -1.3436
vt 0.5036 0.3181 -1.3436
vt 0.5037 0.4296 -1.3436
vt 0.4955 0.4379 -1.3436
vt 0.6078 0.3097 -1.3436
vt 0.5996 0.3180 -1.3436
vt 0.6081 0.4377 -1.3436
vt 0.5998 0.4295 -1.3436
vt 0.6161 0.3179 -1.3436
vt 0.6162 0.4295 -1.3436
vt 0.7122 0.3178 -1.3436
vt 0.7123 0.4293 -1.3436
vt 0.7774 0.8630 0.0000
vt 0.7758 0.6993 0.0000
vt 0.7805 0.7083 0.0000
vt 0.7821 0.8523 0.0000
vt 0.9039 0.8411 0.0000
vt 0.8997 0.8343 0.0000
vt 0.8948 0.7146 0.0000
vt 0.8919 0.7214 0.0000
vt 0.5101 0.8421 0.0000
vt 0.5119 0.7157 0.0000
vt 0.5156 0.7226 0.0000
vt 0.5135 0.8354 0.0000
vt 0.6327 0.8625 0.0000
vt 0.6281 0.8532 0.0000
vt 0.6349 0.6989 0.0000
vt 0.6300 0.7092 0.0000
vt 0.6403 0.7083 0.0000
vt 0.6382 0.8528 0.0000
vt 0.7717 0.8535 0.0000
vt 0.7704 0.7089 0.0000
vt 0.7876 0.8452 0.0000
vt 0.7868 0.7146 0.0000
vt 0.7778 0.8703 0.0000
vt 0.9090 0.8471 0.0000
vt 0.8946 0.8303 0.0000
vt 0.8874 0.7259 0.0000
vt 0.8986 0.7097 0.0000
vt 0.7763 0.6927 0.0000
vt 0.5183 0.8311 0.0000
vt 0.5204 0.7269 0.0000
vt 0.5059 0.8471 0.0000
vt 0.6319 0.8692 0.0000
vt 0.6219 0.8466 0.0000
vt 0.6243 0.7161 0.0000
vt 0.6346 0.6918 0.0000
vt 0.5072 0.7097 0.0000
vt 0.6446 0.8457 0.0000
vt 0.6473 0.7147 0.0000
vt 0.7646 0.8471 0.0000
vt 0.7642 0.7160 0.0000
vt 0.7182 0.1557 -1.3436
vt 0.8262 0.1557 -1.3436
vt 0.8262 0.2854 -1.3436
vt 0.7182 0.2854 -1.3436
vt 0.5022 0.1557 -1.3436
vt 0.6102 0.1557 -1.3436
vt 0.6102 0.2854 -1.3436
vt 0.5022 0.2854 -1.3436
vt 0.8232 0.5039 -1.3436
vt 0.7172 0.5039 -1.3436
vt 0.6112 0.5039 -1.3436
vt 0.5052 0.5039 -1.3436
vt 0.4837 0.2085 -1.3436
vt 0.3533 0.1332 -1.3436
vt 0.3533 0.4344 -1.3436
vt 0.4837 0.3591 -1.3436
vt 0.0947 0.6520 -1.3436
vt 0.0209 0.5243 -1.3436
vt 0.0178 0.5243 -1.3436
vt 0.0931 0.6547 -1.3436
vt 0.3159 0.5243 -1.3436
vt 0.2422 0.6520 -1.3436
vt 0.2437 0.6547 -1.3436
vt 0.3190 0.5243 -1.3436
vt 0.2275 0.2948 -1.3436
vt 0.3297 0.2948 -1.3436
vt 0.3297 0.2873 -1.3436
vt 0.2275 0.2873 -1.3436
vt 0.0230 0.2948 -1.3436
vt 0.1253 0.2948 -1.3436
vt 0.1253 0.2873 -1.3436
vt 0.0230 0.2873 -1.3436
vt 0.3384 0.2528 -1.3436
vt 0.3384 0.1882 -1.3436
vt 0.2304 0.1882 -1.3436
vt 0.2304 0.2528 -1.3436
vt 0.1224 0.2528 -1.3436
vt 0.1224 0.1882 -1.3436
vt 0.0144 0.1882 -1.3436
vt 0.0144 0.2528 -1.3436
vt 0.0993 0.6703 -1.3436
vt 0.0298 0.5499 -1.3436
vt 0.0182 0.5499 -1.3436
vt 0.0935 0.6803 -1.3436
vt 0.3079 0.5499 -1.3436
vt 0.2384 0.6703 -1.3436
vt 0.2441 0.6803 -1.3436
vt 0.3194 0.5499 -1.3436
vt 0.2278 0.3083 -1.3436
vt 0.3307 0.3083 -1.3436
vt 0.3307 0.2957 -1.3436
vt 0.2278 0.2957 -1.3436
vt 0.0221 0.3083 -1.3436
vt 0.1249 0.3083 -1.3436
vt 0.1249 0.2957 -1.3436
vt 0.0221 0.2957 -1.3436
vt 0.0180 0.5101 1.3436
vt 0.3192 0.5101 1.3436
vt 0.2439 0.6406 1.3436
vt 0.0933 0.6406 1.3436
vt 0.2293 0.4397 -1.3436
vt 0.2293 0.4718 -1.3436
vt 0.3353 0.4718 -1.3436
vt 0.3353 0.4397 -1.3436
vt 0.0174 0.4397 -1.3436
vt 0.0174 0.4718 -1.3436
vt 0.1234 0.4718 -1.3436
vt 0.1234 0.4397 -1.3436
vt 0.3382 0.6313 -1.3436
vt 0.4915 0.7174 -1.3436
vt 0.4915 0.3633 -1.3436
vt 0.3382 0.4542 -1.3436
vt 0.2409 0.4293 -1.3436
vt 0.2408 0.3178 -1.3436
vt 0.2325 0.3095 -1.3436
vt 0.2327 0.4376 -1.3436
vt 0.3369 0.3177 -1.3436
vt 0.3451 0.3095 -1.3436
vt 0.3370 0.4293 -1.3436
vt 0.3452 0.4374 -1.3436
vt 0.0159 0.4296 -1.3436
vt 0.0157 0.3181 -1.3436
vt 0.0074 0.3100 -1.3436
vt 0.0077 0.4379 -1.3436
vt 0.1118 0.3180 -1.3436
vt 0.1200 0.3097 -1.3436
vt 0.1120 0.4295 -1.3436
vt 0.1202 0.4377 -1.3436
vt 0.1284 0.4295 -1.3436
vt 0.1282 0.3179 -1.3436
vt 0.2243 0.3178 -1.3436
vt 0.2245 0.4293 -1.3436
vt 0.2926 0.7083 0.0000
vt 0.2879 0.6993 0.0000
vt 0.2895 0.8630 0.0000
vt 0.2942 0.8523 0.0000
vt 0.4160 0.8411 0.0000
vt 0.4118 0.8343 0.0000
vt 0.4070 0.7146 0.0000
vt 0.4040 0.7214 0.0000
vt 0.0278 0.7226 0.0000
vt 0.0241 0.7157 0.0000
vt 0.0223 0.8421 0.0000
vt 0.0257 0.8354 0.0000
vt 0.1448 0.8625 0.0000
vt 0.1403 0.8532 0.0000
vt 0.1470 0.6989 0.0000
vt 0.1421 0.7092 0.0000
vt 0.1525 0.7083 0.0000
vt 0.1504 0.8528 0.0000
vt 0.2839 0.8535 0.0000
vt 0.2826 0.7089 0.0000
vt 0.2998 0.8452 0.0000
vt 0.2989 0.7146 0.0000
vt 0.2900 0.8703 0.0000
vt 0.4212 0.8471 0.0000
vt 0.4068 0.8303 0.0000
vt 0.3996 0.7259 0.0000
vt 0.4108 0.7097 0.0000
vt 0.2885 0.6927 0.0000
vt 0.0304 0.8311 0.0000
vt 0.0325 0.7269 0.0000
vt 0.0181 0.8471 0.0000
vt 0.1441 0.8692 0.0000
vt 0.1341 0.8466 0.0000
vt 0.1365 0.7161 0.0000
vt 0.1467 0.6918 0.0000
vt 0.0194 0.7097 0.0000
vt 0.1568 0.8457 0.0000
vt 0.1595 0.7147 0.0000
vt 0.2767 0.8471 0.0000
vt 0.2763 0.7160 0.0000
vt 0.3384 0.1557 -1.3436
vt 0.2304 0.1557 -1.3436
vt 0.2304 0.2854 -1.3436
vt 0.3384 0.2854 -1.3436
vt 0.1224 0.1557 -1.3436
vt 0.0144 0.1557 -1.3436
vt 0.0144 0.2854 -1.3436
vt 0.1224 0.2854 -1.3436
vt 0.2293 0.5039 -1.3436
vt 0.3353 0.5039 -1.3436
vt 0.0174 0.5039 -1.3436
vt 0.1234 0.5039 -1.3436
# 264 texture coords

g display004
usemtl 17___Default
s 1
f 1/1/1 2/2/1 3/3/1 4/4/1 
f 5/5/1 6/6/1 7/7/1 8/8/1 
f 9/9/1 10/10/1 11/11/1 12/12/1 
f 8/8/1 7/7/1 10/10/1 9/9/1 
s 2
f 6/13/2 13/14/2 14/15/2 7/16/2 
f 10/17/3 15/18/3 16/19/3 11/20/3 
s 4
f 7/16/4 14/15/4 15/18/4 10/17/4 
s 1
f 17/21/2 18/22/2 19/23/2 20/24/2 
s 2
f 21/25/3 22/26/3 23/27/3 24/28/3 
s 4
f 22/26/4 17/21/4 20/24/4 23/27/4 
s 1
f 13/29/5 25/30/5 26/31/5 14/32/5 
f 15/33/6 27/34/6 28/35/6 16/36/6 
s 8
f 14/32/7 26/31/7 27/34/7 15/33/7 
s 2
f 25/37/2 1/38/2 4/39/2 26/40/2 
f 27/41/3 3/42/3 2/43/3 28/44/3 
s 4
f 26/40/4 4/39/4 3/42/4 27/41/4 
s 1
f 29/45/8 30/46/8 31/47/8 32/48/8 
f 33/48/8 34/47/8 35/47/8 36/48/8 
f 37/46/8 38/45/8 39/45/8 40/46/8 
f 38/45/8 33/48/8 36/48/8 39/45/8 
s 2
f 41/48/2 42/47/2 34/47/2 33/48/2 
f 43/46/3 44/45/3 38/45/3 37/46/3 
s 4
f 44/45/4 41/48/4 33/48/4 38/45/4 
s 2
f 45/49/2 46/50/2 36/51/2 35/52/2 
f 47/53/3 48/54/3 40/55/3 39/56/3 
s 4
f 46/50/4 47/53/4 39/56/4 36/51/4 
s 1
f 49/48/9 50/47/9 42/47/9 41/48/9 
f 51/46/10 52/45/10 44/45/10 43/46/10 
s 8
f 52/45/11 49/48/11 41/48/11 44/45/11 
s 2
f 32/48/2 31/47/2 50/47/2 49/48/2 
f 30/46/3 29/45/3 52/45/3 51/46/3 
s 4
f 29/45/4 32/48/4 49/48/4 52/45/4 
s 1
f 53/57/1 54/58/1 55/59/1 56/60/1 
f 14/61/2 57/62/2 58/63/2 41/64/2 
s 2
f 13/65/2 59/66/2 57/62/2 14/61/2 
s 1
f 42/67/2 60/68/2 59/66/2 13/65/2 
f 41/64/2 58/63/2 60/68/2 42/67/2 
f 16/69/3 61/70/3 62/71/3 43/72/3 
f 15/73/3 63/74/3 61/70/3 16/69/3 
f 44/75/3 64/76/3 63/74/3 15/73/3 
f 43/72/3 62/71/3 64/76/3 44/75/3 
s 4
f 15/73/4 65/77/4 66/78/4 44/75/4 
f 14/61/4 67/79/4 65/77/4 15/73/4 
f 41/64/4 68/80/4 67/79/4 14/61/4 
f 44/75/4 66/78/4 68/80/4 41/64/4 
s 1
f 69/81/12 70/82/12 71/83/12 72/84/12 
s 2
f 73/85/12 69/81/12 72/84/12 74/86/12 
s 1
f 75/87/12 73/85/12 74/86/12 76/88/12 
f 70/82/12 75/87/12 76/88/12 71/83/12 
f 77/89/13 78/90/13 79/91/13 80/92/13 
s 2
f 81/93/13 77/89/13 80/92/13 82/94/13 
f 83/95/13 81/93/13 82/94/13 84/96/13 
f 78/90/13 83/95/13 84/96/13 79/91/13 
s 4
f 81/93/14 83/95/14 85/97/14 86/98/14 
f 69/81/14 81/93/14 86/98/14 87/99/14 
s 8
f 70/82/14 69/81/14 87/99/14 88/100/14 
s 4
f 83/95/14 70/82/14 88/100/14 85/97/14 
f 57/101/15 72/84/15 71/83/15 58/102/15 
s 16
f 14/103/8 69/81/8 73/85/8 13/104/8 
s 8
f 59/105/1 74/86/1 72/84/1 57/101/1 
s 4
f 60/106/16 76/88/16 74/86/16 59/105/16 
s 16
f 42/107/1 75/87/1 70/82/1 41/108/1 
s 2
f 58/102/8 71/83/8 76/88/8 60/106/8 
s 4
f 61/109/17 80/92/17 79/91/17 62/110/17 
s 16
f 16/111/8 77/89/8 81/93/8 15/112/8 
s 8
f 63/113/1 82/94/1 80/92/1 61/109/1 
s 4
f 64/114/18 84/96/18 82/94/18 63/113/18 
s 16
f 44/115/1 83/95/1 78/90/1 43/116/1 
s 8
f 62/110/8 79/91/8 84/96/8 64/114/8 
s 1
f 65/117/19 86/98/19 85/97/19 66/118/19 
s 16
f 15/112/8 81/93/8 69/81/8 14/103/8 
s 2
f 67/119/1 87/99/1 86/98/1 65/117/1 
s 1
f 68/120/20 88/100/20 87/99/20 67/119/20 
s 16
f 41/108/1 70/82/1 83/95/1 44/115/1 
s 2
f 66/118/8 85/97/8 88/100/8 68/120/8 
s 1
f 89/121/2 90/122/2 18/22/2 17/21/2 
s 2
f 5/123/2 8/124/2 20/24/2 19/23/2 
f 91/125/3 92/126/3 22/26/3 21/25/3 
f 9/127/3 12/128/3 24/28/3 23/27/3 
s 4
f 92/126/4 89/121/4 17/21/4 22/26/4 
f 8/124/4 9/127/4 23/27/4 20/24/4 
s 2
f 53/129/2 56/130/2 46/50/2 45/49/2 
s 8
f 55/131/3 54/132/3 48/54/3 47/53/3 
s 16
f 56/130/4 55/131/4 47/53/4 46/50/4 
s 1
f 93/133/1 2/134/1 1/135/1 94/136/1 
f 95/137/1 6/138/1 5/139/1 96/140/1 
f 11/141/1 97/142/1 98/143/1 12/144/1 
s 2
f 97/142/1 95/137/1 96/140/1 98/143/1 
s 4
f 99/145/13 13/146/13 6/147/13 95/148/13 
f 16/149/12 100/150/12 97/151/12 11/152/12 
s 8
f 100/150/14 99/145/14 95/148/14 97/151/14 
s 1
f 19/153/13 18/154/13 101/155/13 102/156/13 
s 4
f 103/157/12 104/158/12 21/159/12 24/160/12 
s 8
f 102/156/14 101/155/14 104/158/14 103/157/14 
s 1
f 105/161/21 25/162/21 13/163/21 99/164/21 
f 28/165/22 106/166/22 100/167/22 16/168/22 
s 2
f 106/166/23 105/161/23 99/164/23 100/167/23 
s 4
f 94/169/13 1/170/13 25/171/13 105/172/13 
f 2/173/12 93/174/12 106/175/12 28/176/12 
s 8
f 93/174/14 94/169/14 105/172/14 106/175/14 
s 1
f 107/177/8 30/178/8 108/179/8 109/180/8 
f 110/177/8 34/177/8 111/180/8 112/180/8 
s 2
f 113/179/8 114/179/8 115/178/8 116/178/8 
f 112/180/8 111/180/8 114/179/8 113/179/8 
s 4
f 34/177/13 42/177/13 117/180/13 111/180/13 
s 1
f 114/179/12 118/179/12 119/178/12 115/178/12 
s 8
f 111/180/14 117/180/14 118/179/14 114/179/14 
s 4
f 112/181/13 120/182/13 121/183/13 110/184/13 
s 1
f 116/185/12 122/186/12 123/187/12 113/188/12 
s 8
f 113/188/14 123/187/14 120/182/14 112/181/14 
s 1
f 42/177/24 124/177/24 125/180/24 117/180/24 
s 2
f 118/179/25 126/179/25 51/178/25 119/178/25 
s 16
f 117/180/26 125/180/26 126/179/26 118/179/26 
s 2
f 124/177/13 107/177/13 109/180/13 125/180/13 
s 4
f 126/179/12 108/179/12 30/178/12 51/178/12 
s 8
f 125/180/14 109/180/14 108/179/14 126/179/14 
s 1
f 127/189/1 128/190/1 129/191/1 130/192/1 
f 131/193/13 132/194/13 99/195/13 117/196/13 
s 2
f 132/194/13 133/197/13 13/198/13 99/195/13 
s 1
f 133/197/13 134/199/13 42/200/13 13/198/13 
f 134/199/13 131/193/13 117/196/13 42/200/13 
f 135/201/12 136/202/12 16/203/12 43/204/12 
f 136/202/12 137/205/12 100/206/12 16/203/12 
f 137/205/12 138/207/12 118/208/12 100/206/12 
f 138/207/12 135/201/12 43/204/12 118/208/12 
s 4
f 139/209/14 140/210/14 100/206/14 118/208/14 
f 140/210/14 141/211/14 99/195/14 100/206/14 
f 141/211/14 142/212/14 117/196/14 99/195/14 
f 142/212/14 139/209/14 118/208/14 117/196/14 
s 1
f 143/213/3 144/214/3 145/215/3 146/216/3 
s 2
f 146/216/3 145/215/3 73/217/3 147/218/3 
s 1
f 147/218/3 73/217/3 75/219/3 148/220/3 
f 148/220/3 75/219/3 144/214/3 143/213/3 
f 149/221/2 78/222/2 77/223/2 150/224/2 
s 2
f 150/224/2 77/223/2 151/225/2 152/226/2 
s 1
f 152/226/2 151/225/2 153/227/2 154/228/2 
f 154/228/2 153/227/2 78/222/2 149/221/2 
s 4
f 155/229/4 153/227/4 151/225/4 156/230/4 
f 156/230/4 151/225/4 145/215/4 157/231/4 
f 157/231/4 145/215/4 144/214/4 158/232/4 
f 158/232/4 144/214/4 153/227/4 155/229/4 
f 143/213/17 146/216/17 132/233/17 131/234/17 
s 8
f 73/217/8 145/215/8 99/235/8 13/236/8 
f 146/216/1 147/218/1 133/237/1 132/233/1 
s 4
f 147/218/18 148/220/18 134/238/18 133/237/18 
s 2
f 144/214/1 75/219/1 42/239/1 117/240/1 
f 148/220/8 143/213/8 131/234/8 134/238/8 
s 4
f 149/221/15 150/224/15 136/241/15 135/242/15 
s 8
f 151/225/8 77/223/8 16/243/8 100/244/8 
f 150/224/1 152/226/1 137/245/1 136/241/1 
s 4
f 152/226/16 154/228/16 138/246/16 137/245/16 
s 2
f 78/222/1 153/227/1 118/247/1 43/248/1 
f 154/228/8 149/221/8 135/242/8 138/246/8 
s 1
f 155/229/19 156/230/19 140/249/19 139/250/19 
s 8
f 145/215/8 151/225/8 100/244/8 99/235/8 
s 2
f 156/230/1 157/231/1 141/251/1 140/249/1 
s 1
f 157/231/20 158/232/20 142/252/20 141/251/20 
s 2
f 153/227/1 144/214/1 117/240/1 118/247/1 
f 158/232/8 155/229/8 139/250/8 142/252/8 
f 18/154/13 90/253/13 159/254/13 101/155/13 
s 4
f 102/156/13 96/255/13 5/256/13 19/153/13 
f 104/158/12 160/257/12 91/258/12 21/159/12 
f 24/160/12 12/259/12 98/260/12 103/157/12 
s 8
f 101/155/14 159/254/14 160/257/14 104/158/14 
f 103/157/14 98/260/14 96/255/14 102/156/14 
s 4
f 120/182/13 130/261/13 129/262/13 121/183/13 
s 2
f 122/186/12 128/263/12 127/264/12 123/187/12 
s 16
f 123/187/14 127/264/14 130/261/14 120/182/14 
# 168 polygons

