# 3ds Max Wavefront OBJ Exporter v0.97b - (c)2007 guruware
# File Created: 29.04.2020 19:09:25

mtllib gangglas.mtl

#
# object gangglas
#

v  35.2480 8.7376 20.3628
v  35.2480 8.1275 20.3628
v  35.0780 8.1275 20.7274
v  35.0780 8.7376 20.7274
v  35.5217 7.9876 19.7758
v  35.5217 6.6681 19.7758
v  35.3057 6.6681 20.2391
v  35.3057 7.9876 20.2391
v  35.3025 8.0126 20.3882
v  35.3025 6.2617 20.3882
v  35.0865 6.2617 20.8515
v  35.0865 8.0126 20.8515
v  34.8102 8.7376 21.3017
v  34.9802 8.7376 20.9371
v  34.9802 8.1275 20.9371
v  34.8102 8.1275 21.3017
v  34.5365 7.9876 21.8887
v  34.7525 7.9876 21.4254
v  34.7525 6.6681 21.4254
v  34.5365 6.6681 21.8887
v  34.8647 8.0126 21.3271
v  35.0807 8.0126 20.8638
v  35.0807 6.2617 20.8638
v  34.8647 6.2617 21.3271
# 24 vertices

vn -0.9063 0.0000 -0.4226
# 1 vertex normals

vt 0.2908 1.0000 0.0000
vt 0.2908 0.7536 0.0000
vt 0.4533 0.7536 0.0000
vt 0.4533 1.0000 0.0000
vt 0.0292 0.6971 0.0000
vt 0.0292 0.1642 0.0000
vt 0.2357 0.1642 0.0000
vt 0.2357 0.6971 0.0000
vt 0.2908 0.7072 0.0000
vt 0.2908 0.0000 0.0000
vt 0.4972 0.0000 0.0000
vt 0.4972 0.7072 0.0000
vt 0.7092 1.0000 0.0000
vt 0.5467 1.0000 0.0000
vt 0.5467 0.7536 0.0000
vt 0.7092 0.7536 0.0000
vt 0.9708 0.6971 0.0000
vt 0.7643 0.6971 0.0000
vt 0.7643 0.1642 0.0000
vt 0.9708 0.1642 0.0000
vt 0.7092 0.7072 0.0000
vt 0.5028 0.7072 0.0000
vt 0.5028 0.0000 0.0000
vt 0.7092 0.0000 0.0000
# 24 texture coords

g gangglas
usemtl wire_214228153
s 1
f 1/1/1 2/2/1 3/3/1 4/4/1 
f 5/5/1 6/6/1 7/7/1 8/8/1 
f 9/9/1 10/10/1 11/11/1 12/12/1 
f 13/13/1 14/14/1 15/15/1 16/16/1 
f 17/17/1 18/18/1 19/19/1 20/20/1 
f 21/21/1 22/22/1 23/23/1 24/24/1 
# 6 polygons

