# 3ds Max Wavefront OBJ Exporter v0.97b - (c)2007 guruware
# File Created: 06.05.2020 15:11:51

mtllib glasraam.mtl

#
# object raam
#

v  25.4378 7.2540 17.2953
v  25.4378 6.5639 17.2953
v  25.3855 6.5639 16.6976
v  25.3855 7.2540 16.6976
v  25.4967 7.3040 17.9677
v  25.4444 7.3040 17.3700
v  25.4444 7.9941 17.3700
v  25.4967 7.9941 17.9677
v  25.4378 7.9941 17.2953
v  25.4378 7.3040 17.2953
v  25.3855 7.3040 16.6976
v  25.3855 7.9941 16.6976
v  25.4444 6.5639 17.3700
v  25.4444 7.2540 17.3700
v  25.4967 7.2540 17.9677
v  25.4967 6.5639 17.9677
v  25.1862 8.6896 17.2420
v  25.6985 8.2000 17.1972
v  25.6527 8.2000 16.6742
v  25.1405 8.6896 16.7190
v  26.1545 7.2540 15.7584
v  25.6630 7.2540 16.1026
v  25.6630 6.5639 16.1026
v  26.1545 6.5639 15.7584
v  26.7074 7.3040 15.3713
v  26.7074 7.9941 15.3713
v  26.2159 7.9941 15.7154
v  26.2159 7.3040 15.7154
v  26.1545 7.9941 15.7584
v  25.6630 7.9941 16.1026
v  25.6630 7.3040 16.1026
v  26.1545 7.3040 15.7584
v  26.2159 6.5639 15.7154
v  26.7074 6.5639 15.3713
v  26.7074 7.2540 15.3713
v  26.2159 7.2540 15.7154
v  25.9520 8.6896 15.5999
v  25.5219 8.6896 15.9011
v  25.8168 8.2000 16.3223
v  26.2469 8.2000 16.0211
# 40 vertices

vn 0.8660 0.0000 -0.5000
vn 0.5972 0.7242 -0.3448
vn 0.8660 0.0000 0.5000
vn 0.5972 0.7242 0.3448
# 4 vertex normals

vt 0.3094 0.3313 0.0000
vt 0.3094 0.0123 0.0000
vt 0.0288 0.0123 0.0000
vt 0.0288 0.3313 0.0000
vt 0.6090 0.3544 0.0000
vt 0.3284 0.3544 0.0000
vt 0.3284 0.6733 0.0000
vt 0.6090 0.6733 0.0000
vt 0.3094 0.6733 0.0000
vt 0.3094 0.3544 0.0000
vt 0.0288 0.3544 0.0000
vt 0.0288 0.6733 0.0000
vt 0.3284 0.0123 0.0000
vt 0.3284 0.3313 0.0000
vt 0.6090 0.3313 0.0000
vt 0.6090 0.0123 0.0000
vt 0.2743 0.9587 0.0000
vt 0.2743 0.6958 0.0000
vt 0.0288 0.6958 0.0000
vt 0.0288 0.9587 0.0000
# 20 texture coords

g raam
usemtl 09___Default
s off
f 1/1/1 2/2/1 3/3/1 4/4/1 
f 5/5/1 6/6/1 7/7/1 8/8/1 
f 9/9/1 10/10/1 11/11/1 12/12/1 
f 13/13/1 14/14/1 15/15/1 16/16/1 
f 17/17/2 18/18/2 19/19/2 20/20/2 
f 21/1/3 22/4/3 23/3/3 24/2/3 
f 25/5/3 26/8/3 27/7/3 28/6/3 
f 29/9/3 30/12/3 31/11/3 32/10/3 
f 33/13/3 34/16/3 35/15/3 36/14/3 
f 37/17/4 38/20/4 39/19/4 40/18/4 
# 10 polygons

