# 3ds Max Wavefront OBJ Exporter v0.97b - (c)2007 guruware
# File Created: 27.04.2020 19:21:40

mtllib maquettebordje.mtl

#
# object Plane036
#

v  29.4277 6.8978 18.4586
v  29.4277 6.6824 18.4586
v  29.6041 6.6824 18.3351
v  29.6041 6.8978 18.3351
# 4 vertices

vn 0.5736 -0.0000 0.8191
# 1 vertex normals

vt 0.0000 1.0000 0.0000
vt 0.0000 0.0000 0.0000
vt 1.0000 0.0000 0.0000
vt 1.0000 1.0000 0.0000
# 4 texture coords

g Plane036
usemtl wire_088088225
s 1
f 1/1/1 2/2/1 3/3/1 4/4/1 
# 1 polygons

