# 3ds Max Wavefront OBJ Exporter v0.97b - (c)2007 guruware
# File Created: 12.05.2020 16:24:51

mtllib plattegrond.mtl

#
# object Box006
#

v  31.0502 6.7603 20.3811
v  30.8990 6.7603 20.3106
v  30.8990 6.9615 20.3107
v  31.0502 6.9615 20.3812
v  31.0478 6.7603 20.3863
v  30.8966 6.7603 20.3158
v  30.8966 6.9615 20.3159
v  31.0478 6.9615 20.3864
v  32.1192 6.8871 20.8790
v  31.2041 6.8871 20.4523
v  31.2041 7.4773 20.4524
v  32.1191 7.4773 20.8791
v  32.2375 6.7537 20.9411
v  31.0805 6.7537 20.4016
v  31.0950 6.7537 20.3707
v  32.2519 6.7537 20.9102
v  31.0805 7.6107 20.4018
v  31.0949 7.6107 20.3708
v  32.2374 7.6107 20.9413
v  32.2518 7.6107 20.9103
v  31.1400 6.8071 20.4003
v  32.2002 6.8071 20.8947
v  31.1400 7.5573 20.4005
v  32.2001 7.5573 20.8948
v  31.1361 6.8071 20.4088
v  32.1963 6.8071 20.9032
v  31.1360 7.5573 20.4089
v  32.1962 7.5573 20.9033
v  31.2087 6.8871 20.4427
v  32.1237 6.8871 20.8693
v  31.2086 7.4773 20.4428
v  32.1236 7.4773 20.8694
# 32 vertices

vn 0.4226 0.0002 -0.9063
vn 0.0001 -1.0000 -0.0002
vn -0.9063 -0.0000 -0.4226
vn -0.0001 1.0000 0.0002
vn 0.9063 0.0000 0.4226
vn 0.9063 -0.0000 0.4226
vn 0.4064 0.2742 -0.8716
vn 0.6548 0.0002 -0.7558
vn 0.4065 -0.2738 -0.8717
vn 0.1581 0.0002 -0.9874
vn -0.9063 0.0000 -0.4226
# 11 vertex normals

vt 0.2012 0.8703 0.0000
vt 0.2997 0.8703 0.0000
vt 0.2997 0.9891 0.0000
vt 0.2012 0.9891 0.0000
vt 0.3199 0.8703 0.0000
vt 0.3199 0.9688 0.0000
vt 0.3133 0.9688 0.0000
vt 0.3133 0.8703 0.0000
vt 0.3132 0.8703 0.0000
vt 0.3132 0.9891 0.0000
vt 0.3066 0.9891 0.0000
vt 0.3066 0.8703 0.0000
vt 0.3266 0.8703 0.0000
vt 0.3266 0.9688 0.0000
vt 0.3200 0.9688 0.0000
vt 0.3200 0.8703 0.0000
vt 0.3065 0.8703 0.0000
vt 0.3065 0.9891 0.0000
vt 0.2999 0.9891 0.0000
vt 0.2999 0.8703 0.0000
vt 0.9023 0.4293 0.0000
vt 0.3039 0.4293 0.0000
vt 0.3039 0.0796 0.0000
vt 0.9023 0.0796 0.0000
vt 0.0538 0.0089 0.0000
vt 0.0538 0.9995 0.0000
vt 0.0273 0.9995 0.0000
vt 0.0273 0.0089 0.0000
vt 0.1073 0.0089 0.0000
vt 0.1073 0.6740 0.0000
vt 0.0808 0.6740 0.0000
vt 0.0808 0.0089 0.0000
vt 0.0270 0.0089 0.0000
vt 0.0270 0.9995 0.0000
vt 0.0005 0.9995 0.0000
vt 0.0005 0.0089 0.0000
vt 0.0805 0.0089 0.0000
vt 0.0805 0.6740 0.0000
vt 0.0541 0.6740 0.0000
vt 0.0541 0.0089 0.0000
vt 0.2248 0.0005 0.0000
vt 0.9814 0.0005 0.0000
vt 0.9498 0.0321 0.0000
vt 0.2565 0.0321 0.0000
vt 0.9814 0.5084 0.0000
vt 0.9498 0.4768 0.0000
vt 0.2248 0.5084 0.0000
vt 0.2565 0.4768 0.0000
vt 0.1307 0.9950 0.0000
vt 0.1307 0.0044 0.0000
vt 0.1386 0.0044 0.0000
vt 0.1386 0.9950 0.0000
vt 0.1468 0.6398 0.0000
vt 0.1468 0.0044 0.0000
vt 0.1547 0.0044 0.0000
vt 0.1547 0.6398 0.0000
vt 0.1388 0.9950 0.0000
vt 0.1388 0.0044 0.0000
vt 0.1467 0.0044 0.0000
vt 0.1467 0.9950 0.0000
vt 0.1549 0.6398 0.0000
vt 0.1549 0.0044 0.0000
vt 0.1628 0.0044 0.0000
vt 0.1628 0.6398 0.0000
vt 0.1785 0.9962 0.0000
vt 0.1785 0.0057 0.0000
vt 0.1890 0.0057 0.0000
vt 0.1890 0.9962 0.0000
vt 0.1998 0.5847 0.0000
vt 0.1998 0.0057 0.0000
vt 0.2103 0.0057 0.0000
vt 0.2103 0.5847 0.0000
vt 0.1892 0.9962 0.0000
vt 0.1892 0.0057 0.0000
vt 0.1997 0.0057 0.0000
vt 0.1997 0.9962 0.0000
vt 0.2105 0.5847 0.0000
vt 0.2105 0.0057 0.0000
vt 0.2210 0.0057 0.0000
vt 0.2210 0.5847 0.0000
# 80 texture coords

g Box006
usemtl 08___Default
s 4
f 1/1/1 2/2/1 3/3/1 4/4/1 
s 8
f 5/5/2 6/6/2 2/7/2 1/8/2 
s 16
f 6/9/3 7/10/3 3/11/3 2/12/3 
s 32
f 7/13/4 8/14/4 4/15/4 3/16/4 
s 64
f 8/17/5 5/18/5 1/19/5 4/20/5 
s 4
f 9/21/1 10/22/1 11/23/1 12/24/1 
s 8
f 13/25/2 14/26/2 15/27/2 16/28/2 
s 16
f 14/29/3 17/30/3 18/31/3 15/32/3 
s 32
f 17/33/4 19/34/4 20/35/4 18/36/4 
s 64
f 19/37/6 13/38/6 16/39/6 20/40/6 
s off
f 16/41/7 15/42/7 21/43/7 22/44/7 
f 15/42/8 18/45/8 23/46/8 21/43/8 
f 18/45/9 20/47/9 24/48/9 23/46/9 
f 20/47/10 16/41/10 22/44/10 24/48/10 
f 22/49/4 21/50/4 25/51/4 26/52/4 
f 21/53/5 23/54/5 27/55/5 25/56/5 
f 23/57/2 24/58/2 28/59/2 27/60/2 
f 24/61/11 22/62/11 26/63/11 28/64/11 
f 26/44/1 25/43/1 29/24/1 30/23/1 
f 25/43/1 27/46/1 31/21/1 29/24/1 
f 27/46/1 28/48/1 32/22/1 31/21/1 
f 28/48/1 26/44/1 30/23/1 32/22/1 
f 30/65/4 29/66/4 10/67/4 9/68/4 
f 29/69/5 31/70/5 11/71/5 10/72/5 
f 31/73/2 32/74/2 12/75/2 11/76/2 
f 32/77/3 30/78/3 9/79/3 12/80/3 
# 26 polygons

