# 3ds Max Wavefront OBJ Exporter v0.97b - (c)2007 guruware
# File Created: 12.05.2020 18:58:40

mtllib trees.mtl

#
# object Plane002
#

v  -16.3833 6.3620 10.4843
v  -16.3833 6.3620 16.1061
v  -16.3833 0.7402 16.1061
v  -16.3833 0.7402 10.4843
# 4 vertices

vn 1.0000 0.0000 -0.0000
# 1 vertex normals

vt 1.0000 1.0000 0.0000
vt -0.0000 1.0000 0.0000
vt -0.0000 0.0000 0.0000
vt 1.0000 0.0000 0.0000
# 4 texture coords

g Plane002
usemtl 17___Default
s 1
f 1/1/1 2/2/1 3/3/1 4/4/1 
# 1 polygons

#
# object Plane003
#

v  17.4935 7.7124 10.2054
v  14.6120 7.7124 16.3850
v  14.6120 0.8940 16.3850
v  17.4935 0.8940 10.2054
# 4 vertices

vn 0.9063 0.0000 0.4226
# 1 vertex normals

vt 1.0000 1.0000 0.0000
vt -0.0000 1.0000 0.0000
vt -0.0000 0.0000 0.0000
vt 1.0000 0.0000 0.0000
# 4 texture coords

g Plane003
usemtl 17___Default
s 1
f 5/5/2 6/6/2 7/7/2 8/8/2 
# 1 polygons

#
# object Plane004
#

v  19.8627 6.5940 12.3845
v  17.4868 6.5940 17.4796
v  17.4868 0.9722 17.4796
v  19.8627 0.9722 12.3845
# 4 vertices

vn 0.9063 0.0000 0.4226
# 1 vertex normals

vt 1.0000 1.0000 0.0000
vt -0.0000 1.0000 0.0000
vt -0.0000 0.0000 0.0000
vt 1.0000 0.0000 0.0000
# 4 texture coords

g Plane004
usemtl 17___Default
s 1
f 9/9/3 10/10/3 11/11/3 12/12/3 
# 1 polygons

#
# object Plane005
#

v  9.9711 7.8040 13.4678
v  9.3769 7.8040 20.2603
v  9.3769 0.9856 20.2603
v  9.9711 0.9856 13.4678
# 4 vertices

vn 0.9962 0.0000 0.0872
# 1 vertex normals

vt 1.0000 1.0000 0.0000
vt -0.0000 1.0000 0.0000
vt -0.0000 0.0000 0.0000
vt 1.0000 0.0000 0.0000
# 4 texture coords

g Plane005
usemtl 17___Default
s 1
f 13/13/4 14/14/4 15/15/4 16/16/4 
# 1 polygons

#
# object Plane009
#

v  -24.1931 5.0860 18.1358
v  -24.1931 5.0860 22.4286
v  -24.1931 0.7932 22.4286
v  -24.1931 0.7932 18.1358
# 4 vertices

vn 1.0000 0.0000 -0.0000
# 1 vertex normals

vt 1.0000 1.0000 0.0000
vt -0.0000 1.0000 0.0000
vt -0.0000 0.0000 0.0000
vt 1.0000 0.0000 0.0000
# 4 texture coords

g Plane009
usemtl 17___Default
s 1
f 17/17/5 18/18/5 19/19/5 20/20/5 
# 1 polygons

#
# object Plane010
#

v  -25.9213 5.0860 23.2742
v  -28.3835 5.0860 26.7906
v  -28.3835 0.7932 26.7906
v  -25.9213 0.7932 23.2742
# 4 vertices

vn 0.8192 0.0000 0.5736
# 1 vertex normals

vt 1.0000 1.0000 0.0000
vt -0.0000 1.0000 0.0000
vt -0.0000 0.0000 0.0000
vt 1.0000 0.0000 0.0000
# 4 texture coords

g Plane010
usemtl 17___Default
s 1
f 21/21/6 22/22/6 23/23/6 24/24/6 
# 1 polygons

#
# object Plane011
#

v  -19.6671 6.4829 21.1729
v  -17.8154 6.4829 26.2605
v  -17.8154 1.0688 26.2605
v  -19.6671 1.0688 21.1729
# 4 vertices

vn 0.9397 0.0000 -0.3420
# 1 vertex normals

vt 1.0000 1.0000 0.0000
vt -0.0000 1.0000 0.0000
vt -0.0000 0.0000 0.0000
vt 1.0000 0.0000 0.0000
# 4 texture coords

g Plane011
usemtl 17___Default
s 1
f 25/25/7 26/26/7 27/27/7 28/28/7 
# 1 polygons

#
# object Plane012
#

v  12.3206 8.5296 16.0809
v  13.0414 8.5296 24.3191
v  13.0414 0.2599 24.3191
v  12.3206 0.2599 16.0809
# 4 vertices

vn 0.9962 0.0000 -0.0872
# 1 vertex normals

vt 1.0000 1.0000 0.0000
vt -0.0000 1.0000 0.0000
vt -0.0000 0.0000 0.0000
vt 1.0000 0.0000 0.0000
# 4 texture coords

g Plane012
usemtl 17___Default
s 1
f 29/29/8 30/30/8 31/31/8 32/32/8 
# 1 polygons

#
# object Plane013
#

v  6.8911 7.7206 19.0733
v  6.2968 7.7206 25.8658
v  6.2968 0.9022 25.8658
v  6.8911 0.9022 19.0733
# 4 vertices

vn 0.9962 0.0000 0.0872
# 1 vertex normals

vt 1.0000 1.0000 0.0000
vt -0.0000 1.0000 0.0000
vt -0.0000 0.0000 0.0000
vt 1.0000 0.0000 0.0000
# 4 texture coords

g Plane013
usemtl 17___Default
s 1
f 33/33/9 34/34/9 35/35/9 36/36/9 
# 1 polygons

#
# object Plane014
#

v  1.6862 7.7206 18.8627
v  1.0919 7.7206 25.6551
v  1.0919 0.9022 25.6551
v  1.6862 0.9022 18.8627
# 4 vertices

vn 0.9962 0.0000 0.0872
# 1 vertex normals

vt 1.0000 1.0000 0.0000
vt -0.0000 1.0000 0.0000
vt -0.0000 0.0000 0.0000
vt 1.0000 0.0000 0.0000
# 4 texture coords

g Plane014
usemtl 17___Default
s 1
f 37/37/10 38/38/10 39/39/10 40/40/10 
# 1 polygons

#
# object Plane015
#

v  1.9387 7.7206 9.4796
v  1.3444 7.7206 16.2721
v  1.3444 0.9022 16.2721
v  1.9387 0.9022 9.4796
# 4 vertices

vn 0.9962 0.0000 0.0872
# 1 vertex normals

vt 1.0000 1.0000 0.0000
vt -0.0000 1.0000 0.0000
vt -0.0000 0.0000 0.0000
vt 1.0000 0.0000 0.0000
# 4 texture coords

g Plane015
usemtl 17___Default
s 1
f 41/41/11 42/42/11 43/43/11 44/44/11 
# 1 polygons

#
# object Plane016
#

v  1.5340 7.7206 14.1057
v  0.9397 7.7206 20.8982
v  0.9397 0.9022 20.8982
v  1.5340 0.9022 14.1057
# 4 vertices

vn 0.9962 0.0000 0.0872
# 1 vertex normals

vt 1.0000 1.0000 0.0000
vt -0.0000 1.0000 0.0000
vt -0.0000 0.0000 0.0000
vt 1.0000 0.0000 0.0000
# 4 texture coords

g Plane016
usemtl 17___Default
s 1
f 45/45/12 46/46/12 47/47/12 48/48/12 
# 1 polygons

#
# object Plane017
#

v  21.3648 7.7124 7.8765
v  18.4832 7.7124 14.0561
v  18.4832 0.8940 14.0561
v  21.3648 0.8940 7.8765
# 4 vertices

vn 0.9063 0.0000 0.4226
# 1 vertex normals

vt 1.0000 1.0000 0.0000
vt -0.0000 1.0000 0.0000
vt -0.0000 0.0000 0.0000
vt 1.0000 0.0000 0.0000
# 4 texture coords

g Plane017
usemtl 17___Default
s 1
f 49/49/13 50/50/13 51/51/13 52/52/13 
# 1 polygons

#
# object Plane020
#

v  14.8942 8.1795 10.1978
v  11.5299 8.1795 17.4126
v  11.5299 0.2189 17.4126
v  14.8942 0.2189 10.1978
# 4 vertices

vn 0.9063 0.0000 0.4226
# 1 vertex normals

vt 1.0000 1.0000 0.0000
vt -0.0000 1.0000 0.0000
vt -0.0000 0.0000 0.0000
vt 1.0000 0.0000 0.0000
# 4 texture coords

g Plane020
usemtl 17___Default
s 1
f 53/53/14 54/54/14 55/55/14 56/56/14 
# 1 polygons

#
# object Plane021
#

v  17.5409 6.5940 21.0237
v  16.5646 6.5940 15.4873
v  16.5646 0.9722 15.4873
v  17.5409 0.9722 21.0237
# 4 vertices

vn 0.9848 -0.0000 -0.1736
# 1 vertex normals

vt 1.0000 1.0000 0.0000
vt -0.0000 1.0000 0.0000
vt -0.0000 0.0000 0.0000
vt 1.0000 0.0000 0.0000
# 4 texture coords

g Plane021
usemtl 17___Default
s 1
f 60/60/15 59/59/15 58/58/15 57/57/15 
# 1 polygons

#
# object Plane022
#

v  -14.2691 6.1406 -9.9831
v  -13.7791 6.1406 -15.5835
v  -13.7791 0.5188 -15.5835
v  -14.2691 0.5188 -9.9831
# 4 vertices

vn 0.9962 -0.0000 0.0872
# 1 vertex normals

vt 1.0000 1.0000 0.0000
vt -0.0000 1.0000 0.0000
vt -0.0000 0.0000 0.0000
vt 1.0000 0.0000 0.0000
# 4 texture coords

g Plane022
usemtl 17___Default
s 1
f 64/64/16 63/63/16 62/62/16 61/61/16 
# 1 polygons

#
# object Plane023
#

v  14.2133 7.7436 -4.7263
v  20.3929 7.7436 -7.6079
v  20.3929 0.9252 -7.6079
v  14.2133 0.9252 -4.7263
# 4 vertices

vn 0.4226 -0.0000 0.9063
# 1 vertex normals

vt 1.0000 1.0000 0.0000
vt -0.0000 1.0000 0.0000
vt -0.0000 0.0000 0.0000
vt 1.0000 0.0000 0.0000
# 4 texture coords

g Plane023
usemtl 17___Default
s 1
f 68/68/17 67/67/17 66/66/17 65/65/17 
# 1 polygons

#
# object Plane025
#

v  15.4472 7.8352 -15.5367
v  11.0644 7.8352 -10.3135
v  11.0644 1.0168 -10.3135
v  15.4472 1.0168 -15.5367
# 4 vertices

vn 0.7660 -0.0000 0.6428
# 1 vertex normals

vt 1.0000 1.0000 0.0000
vt -0.0000 1.0000 0.0000
vt -0.0000 0.0000 0.0000
vt 1.0000 0.0000 0.0000
# 4 texture coords

g Plane025
usemtl 17___Default
s 1
f 69/69/18 70/70/18 71/71/18 72/72/18 
# 1 polygons

#
# object Plane027
#

v  6.9811 7.1991 -15.1539
v  12.3496 7.1991 -17.1079
v  12.3496 1.4861 -17.1079
v  6.9811 1.4861 -15.1539
# 4 vertices

vn 0.3420 -0.0000 0.9397
# 1 vertex normals

vt 1.0000 1.0000 0.0000
vt -0.0000 1.0000 0.0000
vt -0.0000 0.0000 0.0000
vt 1.0000 0.0000 0.0000
# 4 texture coords

g Plane027
usemtl 17___Default
s 1
f 76/76/19 75/75/19 74/74/19 73/73/19 
# 1 polygons

#
# object Plane028
#

v  2.2192 6.7650 -17.0018
v  6.7046 6.7650 -20.7656
v  6.7046 0.9096 -20.7656
v  2.2192 0.9096 -17.0018
# 4 vertices

vn 0.6428 -0.0000 0.7660
# 1 vertex normals

vt 1.0000 1.0000 0.0000
vt -0.0000 1.0000 0.0000
vt -0.0000 0.0000 0.0000
vt 1.0000 0.0000 0.0000
# 4 texture coords

g Plane028
usemtl 17___Default
s 1
f 80/80/20 79/79/20 78/78/20 77/77/20 
# 1 polygons

#
# object Plane031
#

v  19.2989 7.7124 -2.6273
v  25.8849 7.7124 -4.3921
v  25.8849 0.8940 -4.3921
v  19.2989 0.8940 -2.6273
# 4 vertices

vn 0.2588 -0.0000 0.9659
# 1 vertex normals

vt 1.0000 1.0000 0.0000
vt -0.0000 1.0000 0.0000
vt -0.0000 0.0000 0.0000
vt 1.0000 0.0000 0.0000
# 4 texture coords

g Plane031
usemtl 17___Default
s 1
f 84/84/21 83/83/21 82/82/21 81/81/21 
# 1 polygons

#
# object Plane035
#

v  22.3215 7.4411 -13.6773
v  16.3797 7.4411 -9.5168
v  16.3797 0.1876 -9.5168
v  22.3215 0.1876 -13.6773
# 4 vertices

vn 0.5736 -0.0000 0.8192
# 1 vertex normals

vt 1.0000 1.0000 0.0000
vt -0.0000 1.0000 0.0000
vt -0.0000 0.0000 0.0000
vt 1.0000 0.0000 0.0000
# 4 texture coords

g Plane035
usemtl 17___Default
s 1
f 85/85/22 86/86/22 87/87/22 88/88/22 
# 1 polygons

#
# object Plane040
#

v  -4.6286 7.7206 20.3923
v  -5.2229 7.7206 27.1848
v  -5.2229 0.9022 27.1848
v  -4.6286 0.9022 20.3923
# 4 vertices

vn 0.9962 0.0000 0.0872
# 1 vertex normals

vt 1.0000 1.0000 0.0000
vt -0.0000 1.0000 0.0000
vt -0.0000 0.0000 0.0000
vt 1.0000 0.0000 0.0000
# 4 texture coords

g Plane040
usemtl 17___Default
s 1
f 89/89/23 90/90/23 91/91/23 92/92/23 
# 1 polygons

#
# object Plane041
#

v  25.8580 7.7124 2.1496
v  20.2726 7.7124 6.0605
v  20.2726 0.8940 6.0605
v  25.8580 0.8940 2.1496
# 4 vertices

vn 0.5736 0.0000 0.8192
# 1 vertex normals

vt 1.0000 1.0000 0.0000
vt -0.0000 1.0000 0.0000
vt -0.0000 0.0000 0.0000
vt 1.0000 0.0000 0.0000
# 4 texture coords

g Plane041
usemtl 17___Default
s 1
f 93/93/24 94/94/24 95/95/24 96/96/24 
# 1 polygons

#
# object Plane042
#

v  19.8610 6.5940 4.1478
v  17.4852 6.5940 9.2429
v  17.4852 0.9722 9.2429
v  19.8610 0.9722 4.1478
# 4 vertices

vn 0.9063 0.0000 0.4226
# 1 vertex normals

vt 1.0000 1.0000 0.0000
vt -0.0000 1.0000 0.0000
vt -0.0000 0.0000 0.0000
vt 1.0000 0.0000 0.0000
# 4 texture coords

g Plane042
usemtl 17___Default
s 1
f 97/97/25 98/98/25 99/99/25 100/100/25 
# 1 polygons

#
# object Plane043
#

v  18.1057 7.0158 3.8889
v  23.4569 7.0158 1.3936
v  23.4569 1.1114 1.3936
v  18.1057 1.1114 3.8889
# 4 vertices

vn 0.4226 0.0000 0.9063
# 1 vertex normals

vt 1.0000 1.0000 0.0000
vt -0.0000 1.0000 0.0000
vt -0.0000 0.0000 0.0000
vt 1.0000 0.0000 0.0000
# 4 texture coords

g Plane043
usemtl 17___Default
s 1
f 104/104/26 103/103/26 102/102/26 101/101/26 
# 1 polygons

#
# object Plane044
#

v  22.3215 7.4411 -26.1108
v  16.3797 7.4411 -21.9504
v  16.3797 0.1876 -21.9504
v  22.3215 0.1876 -26.1108
# 4 vertices

vn 0.5736 -0.0000 0.8192
# 1 vertex normals

vt 1.0000 1.0000 0.0000
vt -0.0000 1.0000 0.0000
vt -0.0000 0.0000 0.0000
vt 1.0000 0.0000 0.0000
# 4 texture coords

g Plane044
usemtl 17___Default
s 1
f 105/105/27 106/106/27 107/107/27 108/108/27 
# 1 polygons

#
# object Plane045
#

v  -3.0351 7.0784 -33.2649
v  -6.2022 7.0784 -27.7793
v  -6.2022 0.7442 -27.7793
v  -3.0351 0.7442 -33.2649
# 4 vertices

vn 0.8660 -0.0000 0.5000
# 1 vertex normals

vt 1.0000 1.0000 0.0000
vt -0.0000 1.0000 0.0000
vt -0.0000 0.0000 0.0000
vt 1.0000 0.0000 0.0000
# 4 texture coords

g Plane045
usemtl 17___Default
s 1
f 109/109/28 110/110/28 111/111/28 112/112/28 
# 1 polygons

#
# object Plane046
#

v  -5.5800 6.6253 -32.7563
v  -3.6573 6.6253 -38.0391
v  -3.6573 1.0035 -38.0391
v  -5.5800 1.0035 -32.7563
# 4 vertices

vn 0.9397 -0.0000 0.3420
# 1 vertex normals

vt 1.0000 1.0000 0.0000
vt -0.0000 1.0000 0.0000
vt -0.0000 0.0000 0.0000
vt 1.0000 0.0000 0.0000
# 4 texture coords

g Plane046
usemtl 17___Default
s 1
f 116/116/29 115/115/29 114/114/29 113/113/29 
# 1 polygons

#
# object Plane047
#

v  3.0550 6.6253 -26.4478
v  7.0302 6.6253 -30.4230
v  7.0302 1.0035 -30.4230
v  3.0550 1.0035 -26.4478
# 4 vertices

vn 0.7071 -0.0000 0.7071
# 1 vertex normals

vt 1.0000 1.0000 0.0000
vt -0.0000 1.0000 0.0000
vt -0.0000 0.0000 0.0000
vt 1.0000 0.0000 0.0000
# 4 texture coords

g Plane047
usemtl 17___Default
s 1
f 120/120/30 119/119/30 118/118/30 117/117/30 
# 1 polygons

#
# object Plane048
#

v  -9.8407 6.6754 -17.3552
v  -14.7737 6.6754 -13.9011
v  -14.7737 0.6534 -13.9011
v  -9.8407 0.6534 -17.3552
# 4 vertices

vn 0.5736 -0.0000 0.8192
# 1 vertex normals

vt -0.0000 1.0000 0.0000
vt 1.0000 1.0000 0.0000
vt 1.0000 0.0000 0.0000
vt -0.0000 0.0000 0.0000
# 4 texture coords

g Plane048
usemtl 17___Default
s 1
f 121/121/31 122/122/31 123/123/31 124/124/31 
# 1 polygons

#
# object Plane049
#

v  -8.0534 6.6754 -21.9764
v  -12.9864 6.6754 -18.5223
v  -12.9864 0.6534 -18.5223
v  -8.0534 0.6534 -21.9764
# 4 vertices

vn 0.5736 -0.0000 0.8192
# 1 vertex normals

vt -0.0000 1.0000 0.0000
vt 1.0000 1.0000 0.0000
vt 1.0000 0.0000 0.0000
vt -0.0000 0.0000 0.0000
# 4 texture coords

g Plane049
usemtl 17___Default
s 1
f 125/125/32 126/126/32 127/127/32 128/128/32 
# 1 polygons

#
# object Plane050
#

v  -4.2038 6.6754 -19.5277
v  -9.1368 6.6754 -16.0736
v  -9.1368 0.6534 -16.0736
v  -4.2038 0.6534 -19.5277
# 4 vertices

vn 0.5736 -0.0000 0.8192
# 1 vertex normals

vt -0.0000 1.0000 0.0000
vt 1.0000 1.0000 0.0000
vt 1.0000 0.0000 0.0000
vt -0.0000 0.0000 0.0000
# 4 texture coords

g Plane050
usemtl 17___Default
s 1
f 129/129/33 130/130/33 131/131/33 132/132/33 
# 1 polygons

#
# object Plane051
#

v  -3.1866 6.2079 -18.9882
v  1.5936 6.2079 -20.7280
v  1.5936 1.1209 -20.7280
v  -3.1866 1.1209 -18.9882
# 4 vertices

vn 0.3420 -0.0000 0.9397
# 1 vertex normals

vt 1.0000 1.0000 0.0000
vt -0.0000 1.0000 0.0000
vt -0.0000 0.0000 0.0000
vt 1.0000 0.0000 0.0000
# 4 texture coords

g Plane051
usemtl 17___Default
s 1
f 136/136/34 135/135/34 134/134/34 133/133/34 
# 1 polygons

#
# object Plane052
#

v  -21.3164 6.5451 -1.3486
v  -22.2926 6.5451 4.1878
v  -22.2926 0.9233 4.1878
v  -21.3164 0.9233 -1.3486
# 4 vertices

vn 0.9848 0.0000 0.1736
# 1 vertex normals

vt 1.0000 1.0000 0.0000
vt -0.0000 1.0000 0.0000
vt -0.0000 0.0000 0.0000
vt 1.0000 0.0000 0.0000
# 4 texture coords

g Plane052
usemtl 17___Default
s 1
f 137/137/35 138/138/35 139/139/35 140/140/35 
# 1 polygons

#
# object Plane054
#

v  -23.5458 7.0784 -22.8585
v  -22.9938 7.0784 -16.5484
v  -22.9938 0.7442 -16.5484
v  -23.5458 0.7442 -22.8585
# 4 vertices

vn 0.9962 -0.0000 -0.0872
# 1 vertex normals

vt 1.0000 1.0000 0.0000
vt -0.0000 1.0000 0.0000
vt -0.0000 0.0000 0.0000
vt 1.0000 0.0000 0.0000
# 4 texture coords

g Plane054
usemtl 17___Default
s 1
f 141/141/36 142/142/36 143/143/36 144/144/36 
# 1 polygons

#
# object Plane056
#

v  -37.4157 7.7555 -27.7675
v  -31.5759 7.7555 -31.8566
v  -31.5759 0.6264 -31.8566
v  -37.4157 0.6264 -27.7675
# 4 vertices

vn 0.5736 0.0000 0.8192
# 1 vertex normals

vt -0.0000 1.0000 0.0000
vt 1.0000 1.0000 0.0000
vt 1.0000 0.0000 0.0000
vt -0.0000 0.0000 0.0000
# 4 texture coords

g Plane056
usemtl 17___Default
s 1
f 148/148/37 147/147/37 146/146/37 145/145/37 
# 1 polygons

#
# object Plane057
#

v  -66.8157 7.7555 -55.7363
v  -60.9758 7.7555 -59.8254
v  -60.9758 0.6264 -59.8254
v  -66.8157 0.6264 -55.7363
# 4 vertices

vn 0.5736 0.0000 0.8192
# 1 vertex normals

vt -0.0000 1.0000 0.0000
vt 1.0000 1.0000 0.0000
vt 1.0000 0.0000 0.0000
vt -0.0000 0.0000 0.0000
# 4 texture coords

g Plane057
usemtl 17___Default
s 1
f 152/152/38 151/151/38 150/150/38 149/149/38 
# 1 polygons

#
# object Plane058
#

v  -63.6534 8.4797 -64.9961
v  -70.6797 8.4797 -60.0763
v  -70.6797 -0.0978 -60.0763
v  -63.6534 -0.0978 -64.9961
# 4 vertices

vn 0.5736 -0.0000 0.8192
# 1 vertex normals

vt -0.0000 1.0000 0.0000
vt 1.0000 1.0000 0.0000
vt 1.0000 0.0000 0.0000
vt -0.0000 0.0000 0.0000
# 4 texture coords

g Plane058
usemtl 17___Default
s 1
f 153/153/39 154/154/39 155/155/39 156/156/39 
# 1 polygons

#
# object Plane059
#

v  -72.8095 8.4797 -78.0724
v  -79.8358 8.4797 -73.1525
v  -79.8358 -0.0978 -73.1525
v  -72.8095 -0.0978 -78.0724
# 4 vertices

vn 0.5736 -0.0000 0.8192
# 1 vertex normals

vt -0.0000 1.0000 0.0000
vt 1.0000 1.0000 0.0000
vt 1.0000 0.0000 0.0000
vt -0.0000 0.0000 0.0000
# 4 texture coords

g Plane059
usemtl 17___Default
s 1
f 157/157/40 158/158/40 159/159/40 160/160/40 
# 1 polygons

#
# object Plane060
#

v  -43.9572 7.3273 -6.7759
v  -45.2050 7.3273 0.3010
v  -45.2050 0.1412 0.3010
v  -43.9572 0.1412 -6.7759
# 4 vertices

vn 0.9848 0.0000 0.1736
# 1 vertex normals

vt 1.0000 1.0000 0.0000
vt -0.0000 1.0000 0.0000
vt -0.0000 0.0000 0.0000
vt 1.0000 0.0000 0.0000
# 4 texture coords

g Plane060
usemtl 17___Default
s 1
f 161/161/41 162/162/41 163/163/41 164/164/41 
# 1 polygons

#
# object Plane061
#

v  -60.8478 7.3273 2.0638
v  -59.5999 7.3273 -5.0132
v  -59.5999 0.1412 -5.0132
v  -60.8478 0.1412 2.0638
# 4 vertices

vn 0.9848 0.0000 0.1736
# 1 vertex normals

vt 1.0000 1.0000 0.0000
vt -0.0000 1.0000 0.0000
vt -0.0000 0.0000 0.0000
vt 1.0000 0.0000 0.0000
# 4 texture coords

g Plane061
usemtl 17___Default
s 1
f 168/168/42 167/167/42 166/166/42 165/165/42 
# 1 polygons

