# 3ds Max Wavefront OBJ Exporter v0.97b - (c)2007 guruware
# File Created: 26.03.2020 22:20:53

mtllib vijver.mtl

#
# object vijver
#

v  -5.4868 0.9820 7.1044
v  -13.0921 0.9820 12.7606
v  -13.0897 0.9820 15.5231
v  -5.4951 0.9820 18.3301
v  -16.0637 0.9820 -11.7953
v  -20.9937 0.9820 0.9667
v  -17.2710 0.9820 -0.2107
v  -17.2710 0.9820 2.1559
v  -15.0680 0.9820 2.1559
v  -7.7492 0.9820 1.9512
v  -0.7672 0.9820 7.1031
v  -15.8761 0.9820 12.7576
v  -15.0680 0.9820 -0.2107
v  -15.0680 0.9820 -0.0267
v  -7.7492 0.9820 -0.0267
v  -15.0680 0.9820 1.9512
v  0.2234 0.9820 -6.7962
v  -1.7578 0.9820 -6.7962
v  -1.9596 0.9820 -13.3141
v  -5.8088 0.9820 -9.4663
v  -1.9597 0.9820 -15.6785
v  -0.7672 0.9820 -19.7463
v  -13.3637 0.9820 -14.4459
v  -1.7582 0.9820 -13.3140
v  -10.0182 0.9820 -12.2408
v  -0.7672 0.9820 -15.6785
v  11.5554 0.9820 15.5231
v  11.5577 0.9820 12.7606
v  3.9524 0.9820 7.1044
v  3.9607 0.9820 18.3301
v  14.5293 0.9820 -11.7953
v  15.7367 0.9820 -0.2107
v  19.4593 0.9820 0.9667
v  15.7367 0.9820 2.1559
v  13.5336 0.9820 2.1559
v  6.2148 0.9820 1.9512
v  11.8294 0.9820 -11.7953
v  6.2148 0.9820 -0.0267
v  13.5336 0.9820 -0.2107
v  14.3417 0.9820 12.7576
v  13.5336 0.9820 -0.0267
v  13.5336 0.9820 1.9512
v  0.4253 0.9820 -13.3141
v  0.4253 0.9820 -15.6785
v  11.8294 0.9820 -14.4459
v  0.2238 0.9820 -13.3140
v  -13.8291 0.9820 -8.6323
v  -13.3637 0.9820 -11.7953
v  -10.8547 0.9820 -4.4224
# 49 vertices

vn 0.0000 1.0000 -0.0000
vn 0.0000 -1.0000 -0.0000
# 2 vertex normals

vt 0.9312 0.2670 0.0000
vt 0.7707 0.3363 0.0000
vt 0.7266 0.3108 0.0000
vt 0.7518 0.1636 0.0000
vt 0.7992 0.9037 0.0000
vt 0.5470 0.8976 0.0000
vt 0.5933 0.8425 0.0000
vt 0.5530 0.8258 0.0000
vt 0.9219 0.4656 0.0000
vt 0.9016 0.5008 0.0000
vt 0.9926 0.3506 0.0000
vt 0.9747 0.1916 0.0000
vt 0.8862 0.5712 0.0000
vt 0.7451 0.3808 0.0000
vt 0.6089 0.8050 0.0000
vt 0.6057 0.8037 0.0000
vt 0.6574 0.6790 0.0000
vt 0.5790 0.8424 0.0000
vt 0.6307 0.7177 0.0000
vt 0.6342 0.7192 0.0000
vt 0.3018 0.3702 0.0000
vt 0.3473 0.0682 0.0000
vt 0.7180 0.3895 0.0000
vt 0.6686 0.4388 0.0000
vt 0.8258 0.6061 0.0000
vt 0.6343 0.6061 0.0000
vt 0.8286 0.6245 0.0000
vt 0.9014 0.5960 0.0000
vt 0.8242 0.8360 0.0000
vt 0.7851 0.6283 0.0000
vt 0.7848 0.6246 0.0000
vt 0.6650 0.6350 0.0000
vt 0.7784 0.7781 0.0000
vt 0.8266 0.6026 0.0000
vt 0.0166 0.4404 0.0000
vt 0.0510 0.4028 0.0000
vt 0.2249 0.4206 0.0000
vt 0.0849 0.5732 0.0000
vt 0.1704 0.8789 0.0000
vt 0.3829 0.9104 0.0000
vt 0.4016 0.9800 0.0000
vt 0.0905 0.1440 0.0000
vt 0.1558 0.1743 0.0000
vt 0.1263 0.2065 0.0000
vt 0.1562 0.2340 0.0000
vt 0.2583 0.3224 0.0000
vt 0.2890 0.4794 0.0000
vt 0.1726 0.8291 0.0000
vt 0.3939 0.7351 0.0000
vt 0.3846 0.8698 0.0000
vt 0.0132 0.3680 0.0000
vt 0.3880 0.8700 0.0000
vt 0.1588 0.2312 0.0000
vt 0.6494 0.0226 0.0000
vt 0.6986 0.0719 0.0000
vt 0.2740 0.6193 0.0000
vt 0.1538 0.6178 0.0000
vt 0.1102 0.6159 0.0000
vt 0.1237 0.8270 0.0000
vt 0.0362 0.5906 0.0000
vt 0.1539 0.6141 0.0000
vt 0.1112 0.5939 0.0000
vt 0.3510 0.4194 0.0000
vt 0.7206 0.7052 0.0000
vt 0.7611 0.8433 0.0000
vt 0.7755 0.8402 0.0000
vt 0.7103 0.7629 0.0000
vt 0.3831 0.6061 0.0000
vt 0.1734 0.6062 0.0000
vt 0.4139 0.7850 0.0000
vt 0.5986 0.7799 0.0000
vt 0.5042 0.8521 0.0000
vt 0.8183 0.8577 0.0000
# 73 texture coords

g vijver
usemtl Pond
s off
f 1/1/1 2/2/1 3/3/1 4/4/1 
f 5/5/1 6/6/1 7/7/1 
f 6/6/1 8/8/1 7/7/1 
f 2/2/1 9/9/1 8/10/1 
f 10/11/1 1/1/1 11/12/1 
f 6/13/1 12/14/1 2/2/1 8/10/1 
f 2/2/1 1/1/1 10/11/1 9/9/1 
f 13/15/1 14/16/1 15/17/1 
f 10/18/1 16/19/1 9/20/1 
f 10/21/1 11/22/1 17/23/1 
f 18/24/1 19/25/1 20/26/1 18/24/1 
f 21/27/1 22/28/1 23/29/1 
f 19/30/2 24/31/2 18/32/2 
f 18/32/1 24/31/1 19/30/1 
f 19/30/1 21/27/1 23/29/1 25/33/1 
f 21/27/1 26/34/1 22/28/1 
f 27/35/1 28/36/1 29/37/1 30/38/1 
f 31/39/1 32/40/1 33/41/1 
f 33/42/1 32/43/1 34/44/1 
f 28/36/1 34/44/1 35/45/1 
f 36/46/1 11/47/1 29/37/1 
f 37/48/1 38/49/1 39/50/1 31/39/1 
f 33/42/1 34/44/1 28/36/1 40/51/1 
f 28/36/1 35/45/1 36/46/1 29/37/1 
f 31/39/1 39/50/1 32/40/1 
f 39/50/1 38/49/1 41/52/1 
f 36/46/1 35/45/1 42/53/1 
f 17/23/1 11/22/1 36/54/1 38/55/1 
f 17/56/1 38/49/1 37/48/1 43/57/1 
f 44/58/1 45/59/1 22/60/1 
f 43/57/2 17/56/2 46/61/2 
f 17/56/1 43/57/1 46/61/1 
f 43/57/1 37/48/1 45/59/1 44/58/1 
f 44/58/1 22/60/1 26/62/1 
f 17/23/1 18/24/1 18/24/1 15/63/1 
f 17/23/1 15/63/1 10/21/1 
f 19/30/1 25/33/1 20/64/1 
f 13/15/1 47/65/1 5/5/1 7/7/1 
f 23/29/1 48/66/1 25/33/1 
f 47/65/1 13/15/1 49/67/1 
f 49/68/1 13/69/1 15/63/1 
f 15/63/1 18/24/1 20/26/1 49/68/1 
f 47/70/1 49/68/1 20/26/1 25/71/1 
f 47/70/1 25/71/1 48/72/1 
f 47/65/1 48/73/1 5/5/1 
# 16 polygons - 29 triangles

