# 3ds Max Wavefront OBJ Exporter v0.97b - (c)2007 guruware
# File Created: 12.05.2020 14:45:47

mtllib vredespaleis.mtl

#
# object vredespaleis
#

v  30.1451 6.8419 15.7183
v  30.4909 6.8419 15.8795
v  30.4909 7.3777 15.8795
v  30.1451 7.3777 15.7183
v  30.0699 6.7629 15.6785
v  30.5516 6.7629 15.9031
v  30.5392 6.7629 15.9298
v  30.0574 6.7629 15.7051
v  30.5516 7.4487 15.9031
v  30.5392 7.4487 15.9298
v  30.0699 7.4487 15.6785
v  30.0574 7.4487 15.7051
v  30.5289 6.7919 15.9164
v  30.0924 6.7919 15.7128
v  30.5289 7.4277 15.9164
v  30.0924 7.4277 15.7128
v  30.5325 6.7919 15.9085
v  30.0961 6.7919 15.7050
v  30.5325 7.4277 15.9085
v  30.0961 7.4277 15.7050
v  30.4872 6.8419 15.8874
v  30.1414 6.8419 15.7261
v  30.4872 7.3777 15.8874
v  30.1414 7.3777 15.7261
v  30.2252 6.6419 15.7509
v  30.2252 6.7381 15.7509
v  30.4325 6.7381 15.8476
v  30.4325 6.6419 15.8476
v  30.2235 6.6419 15.7545
v  30.4308 6.6419 15.8511
v  30.4308 6.7381 15.8511
v  30.2235 6.7381 15.7545
# 32 vertices

vn -0.4226 0.0000 0.9063
vn -0.0000 -1.0000 0.0000
vn 0.9063 0.0000 0.4226
vn 0.0000 1.0000 -0.0000
vn -0.9063 0.0000 -0.4226
vn -0.4176 0.1537 0.8955
vn -0.6654 0.0000 0.7465
vn -0.4132 -0.2099 0.8861
vn -0.3032 0.0000 0.9529
vn 0.4226 -0.0000 -0.9063
# 10 vertex normals

vt 0.1027 0.0971 0.0000
vt 0.5454 0.0971 0.0000
vt 0.5454 0.7187 0.0000
vt 0.1027 0.7187 0.0000
vt 0.7235 0.0055 0.0000
vt 0.7235 0.6213 0.0000
vt 0.7039 0.6213 0.0000
vt 0.7039 0.0055 0.0000
vt 0.6672 0.0055 0.0000
vt 0.6672 0.8000 0.0000
vt 0.6476 0.8000 0.0000
vt 0.6476 0.0055 0.0000
vt 0.7476 0.0055 0.0000
vt 0.7476 0.6213 0.0000
vt 0.7280 0.6213 0.0000
vt 0.7280 0.0055 0.0000
vt 0.6431 0.0055 0.0000
vt 0.6431 0.8000 0.0000
vt 0.6235 0.8000 0.0000
vt 0.6235 0.0055 0.0000
vt 0.0045 0.0056 0.0000
vt 0.6211 0.0055 0.0000
vt 0.6036 0.0391 0.0000
vt 0.0449 0.0392 0.0000
vt 0.6211 0.8011 0.0000
vt 0.6036 0.7767 0.0000
vt 0.0045 0.8012 0.0000
vt 0.0449 0.7768 0.0000
vt 0.7521 0.5634 0.0000
vt 0.7521 0.0055 0.0000
vt 0.7579 0.0055 0.0000
vt 0.7579 0.5634 0.0000
vt 0.6797 0.7421 0.0000
vt 0.6797 0.0055 0.0000
vt 0.6855 0.0055 0.0000
vt 0.6855 0.7421 0.0000
vt 0.7601 0.5634 0.0000
vt 0.7601 0.0055 0.0000
vt 0.7659 0.0055 0.0000
vt 0.7659 0.5634 0.0000
vt 0.6717 0.7421 0.0000
vt 0.6717 0.0055 0.0000
vt 0.6775 0.0055 0.0000
vt 0.6775 0.7421 0.0000
vt 0.0448 0.0391 0.0000
vt 0.6035 0.0391 0.0000
vt 0.5455 0.0971 0.0000
vt 0.1028 0.0971 0.0000
vt 0.6035 0.7767 0.0000
vt 0.5455 0.7187 0.0000
vt 0.0448 0.7767 0.0000
vt 0.1028 0.7187 0.0000
vt 0.7682 0.4476 0.0000
vt 0.7682 0.0055 0.0000
vt 0.7740 0.0055 0.0000
vt 0.7740 0.4476 0.0000
vt 0.6958 0.6262 0.0000
vt 0.6958 0.0055 0.0000
vt 0.7016 0.0055 0.0000
vt 0.7016 0.6262 0.0000
vt 0.7762 0.4476 0.0000
vt 0.7762 0.0055 0.0000
vt 0.7820 0.0055 0.0000
vt 0.7820 0.4476 0.0000
vt 0.6878 0.6262 0.0000
vt 0.6878 0.0055 0.0000
vt 0.6936 0.0055 0.0000
vt 0.6936 0.6262 0.0000
vt 0.0611 0.9710 0.0000
vt 0.0611 0.9945 0.0000
vt 0.0052 0.9945 0.0000
vt 0.0052 0.9710 0.0000
vt 0.0045 0.8054 0.0000
vt 0.3693 0.8054 0.0000
vt 0.3693 0.9589 0.0000
vt 0.0045 0.9589 0.0000
vt 0.3693 0.9700 0.0000
vt 0.0045 0.9700 0.0000
vt 0.0045 0.9664 0.0000
vt 0.3693 0.9664 0.0000
vt 0.2156 0.9739 0.0000
vt 0.0621 0.9739 0.0000
vt 0.0621 0.9702 0.0000
vt 0.2156 0.9702 0.0000
vt 0.3693 0.9661 0.0000
vt 0.0045 0.9661 0.0000
vt 0.0045 0.9625 0.0000
vt 0.3693 0.9625 0.0000
vt 0.3693 0.9739 0.0000
vt 0.2158 0.9739 0.0000
vt 0.2158 0.9702 0.0000
vt 0.3693 0.9702 0.0000
# 92 texture coords

g vredespaleis
usemtl 03___Default
s 4
f 1/1/1 2/2/1 3/3/1 4/4/1 
s 8
f 5/5/2 6/6/2 7/7/2 8/8/2 
s 16
f 6/9/3 9/10/3 10/11/3 7/12/3 
s 32
f 9/13/4 11/14/4 12/15/4 10/16/4 
s 64
f 11/17/5 5/18/5 8/19/5 12/20/5 
s off
f 8/21/6 7/22/6 13/23/6 14/24/6 
f 7/22/7 10/25/7 15/26/7 13/23/7 
f 10/25/8 12/27/8 16/28/8 15/26/8 
f 12/27/9 8/21/9 14/24/9 16/28/9 
f 14/29/4 13/30/4 17/31/4 18/32/4 
f 13/33/5 15/34/5 19/35/5 17/36/5 
f 15/37/2 16/38/2 20/39/2 19/40/2 
f 16/41/3 14/42/3 18/43/3 20/44/3 
f 18/45/1 17/46/1 21/47/1 22/48/1 
f 17/46/1 19/49/1 23/50/1 21/47/1 
f 19/49/1 20/51/1 24/52/1 23/50/1 
f 20/51/1 18/45/1 22/48/1 24/52/1 
f 22/53/4 21/54/4 2/55/4 1/56/4 
f 21/57/5 23/58/5 3/59/5 2/60/5 
f 23/61/2 24/62/2 4/63/2 3/64/2 
f 24/65/3 22/66/3 1/67/3 4/68/3 
s 2
f 25/69/10 26/70/10 27/71/10 28/72/10 
s 4
f 29/73/1 30/74/1 31/75/1 32/76/1 
s 8
f 25/77/2 28/78/2 30/79/2 29/80/2 
s 16
f 28/81/3 27/82/3 31/83/3 30/84/3 
s 32
f 27/85/4 26/86/4 32/87/4 31/88/4 
s 64
f 26/89/5 25/90/5 29/91/5 32/92/5 
# 27 polygons

