# 3ds Max Wavefront OBJ Exporter v0.97b - (c)2007 guruware
# File Created: 26.04.2020 17:53:07

mtllib clouds.mtl

#
# object clouds
#

v  168.2821 15.9527 142.0544
v  -129.7431 15.9526 142.0544
v  -129.7431 15.9526 -155.9707
v  168.2821 15.9527 -155.9707
# 4 vertices

vn 0.0000 -1.0000 -0.0000
# 1 vertex normals

vt 0.0000 0.0000 0.0000
vt 1.0000 0.0000 0.0000
vt 1.0000 1.0000 0.0000
vt 0.0000 1.0000 0.0000
# 4 texture coords

g clouds
usemtl wire_184228153
s 1
f 1/1/1 2/2/1 3/3/1 4/4/1 
# 1 polygons

