<svg height='100px' width='100px'  fill="#000000" xmlns="http://www.w3.org/2000/svg" data-name="Layer 2" viewBox="0 0 100 100" x="0px" y="0px"><title>Artboard 9</title><path d="M35.83368,37.84583l-.00067,15.222-1.20215.21a2.43649,2.43649,0,0,0-2.0166,2.40625V65.85986a4.41241,4.41241,0,0,0,1.2832,3.1001l9.7041,9.70459V94a.49971.49971,0,0,0,.5.5H63.52051a.49971.49971,0,0,0,.5-.5V78.47852c0-.501,1.0332-1.9126,1.78711-2.94336,1.30469-1.78369,2.09668-2.92773,2.09668-3.77881l.001-16.94775a4.3824,4.3824,0,0,0-7.81055-2.73145,4.38235,4.38235,0,0,0-7.88281-1.9668,4.40185,4.40185,0,0,0-1.124-1.93213,4.38344,4.38344,0,0,0-6.48633.31494V37.81152a8.09631,8.09631,0,1,0-8.76788.0343ZM47.98535,47.89355a3.33625,3.33625,0,0,1,2.3916.98877,3.38647,3.38647,0,0,1,.99219,2.39551l.001,1.41309a.5.5,0,0,0,1-.00049,3.38379,3.38379,0,1,1,6.76758,0v2.11816a.5.5,0,0,0,1,0,3.38379,3.38379,0,0,1,6.76758,0l-.001,16.94775c0,.58594-1.05566,2.02881-1.9043,3.188-1.23145,1.68408-1.97949,2.76221-1.97949,3.53418V93.5H44.60156V78.45752a.49964.49964,0,0,0-.14648-.35352l-9.85059-9.85107a3.4073,3.4073,0,0,1-.99023-2.39307V55.68408a1.43779,1.43779,0,0,1,1.18848-1.4209L35.833,54.083v7.8291a.5.5,0,1,0,1,0V53.5166a.53849.53849,0,0,0,0-.05615l.001-22.42871a3.3358,3.3358,0,0,1,.98828-2.3916,3.385,3.385,0,0,1,5.7793,2.3916V51.27734a.5.5,0,0,0,1,0A3.38744,3.38744,0,0,1,47.98535,47.89355ZM40.19141,23.95068a7.09114,7.09114,0,0,1,4.41016,12.64844V31.03174a4.38489,4.38489,0,0,0-7.48242-3.10254A4.32992,4.32992,0,0,0,35.834,31.03174l-.00024,5.60944a7.09171,7.09171,0,0,1,4.35767-12.69049Z"></path><path d="M39.83728,19.64734a.50148.50148,0,0,0,.70825,0l7.59607-7.59607a.49995.49995,0,0,0-.707-.707L40.69141,18.0874V6a.5.5,0,0,0-1,0V18.0874l-6.74316-6.74316a.49995.49995,0,0,0-.707.707Z"></path></svg>