<svg height='100px' width='100px'  fill="#000000" xmlns="http://www.w3.org/2000/svg" data-name="Layer 2" viewBox="0 0 100 100" x="0px" y="0px"><title>Artboard 2</title><path d="M43.33691,23.8905V43.04688l-1.603.27979a2.91693,2.91693,0,0,0-2.41309,2.87988V58.89893a5.38458,5.38458,0,0,0,1.56494,3.78027L53.02637,74.81982V94a.49971.49971,0,0,0,.5.5H77.748a.49971.49971,0,0,0,.5-.5V74.63965c0-.66553,1.24951-2.37354,2.25342-3.74561,1.33252-1.82178,2.59131-3.54248,2.59131-4.64014l.002-21.13916a5.34336,5.34336,0,0,0-9.70752-3.08447,5.34325,5.34325,0,0,0-9.79834-2.48193,5.36565,5.36565,0,0,0-1.436-2.6167,5.27884,5.27884,0,0,0-3.78223-1.56689,5.34036,5.34036,0,0,0-4.34424,2.23486V23.84784a9.97522,9.97522,0,1,0-10.68945.04266ZM58.37061,36.36475a4.28672,4.28672,0,0,1,3.07129,1.27A4.34835,4.34835,0,0,1,62.71533,40.71l.001,1.7627a.5.5,0,0,0,1-.00049,4.34448,4.34448,0,1,1,8.689,0v2.64258a.5.5,0,0,0,1,0,4.34473,4.34473,0,0,1,8.68945,0l-.002,21.13916c0,.771-1.33008,2.58887-2.39844,4.04932-1.3125,1.79443-2.44629,3.34424-2.44629,4.33643V93.5H54.02637V74.61279a.49964.49964,0,0,0-.14648-.35352L41.59277,61.97217a4.37861,4.37861,0,0,1-1.272-3.07324V46.20654A1.91782,1.91782,0,0,1,41.90625,44.312l1.43066-.25v9.9126a.5.5,0,1,0,1,0V43.49121a.39113.39113,0,0,0,0-.04785V15.45605a4.28643,4.28643,0,0,1,1.27-3.0708,4.34588,4.34588,0,0,1,7.41943,3.0708V40.70947a.5.5,0,0,0,1,0A4.34946,4.34946,0,0,1,58.37061,36.36475ZM48.64893,6.5a8.95815,8.95815,0,0,1,5.37744,16.13617V15.45605a5.34577,5.34577,0,0,0-9.12256-3.78174,5.27772,5.27772,0,0,0-1.56689,3.78174v7.22974A8.959,8.959,0,0,1,48.64893,6.5Z"></path><path d="M63.30908,15.97607h15.376L70.063,24.59863a.49995.49995,0,1,0,.707.707l9.475-9.47546a.50148.50148,0,0,0,0-.70825L70.77,5.64648a.49995.49995,0,0,0-.707.707l8.62207,8.62256h-15.376a.5.5,0,0,0,0,1Z"></path><path d="M16.94373,15.667a.49991.49991,0,0,0,.10864.16321l9.47546,9.47546a.49995.49995,0,0,0,.707-.707L18.6123,15.97607h15.376a.5.5,0,0,0,0-1H18.6123l8.62256-8.62256a.49995.49995,0,0,0-.707-.707l-9.47546,9.47546a.50148.50148,0,0,0-.10864.545Z"></path></svg>