<svg height='100px' width='100px'  fill="#000000" xmlns="http://www.w3.org/2000/svg" data-name="Layer 2" viewBox="0 0 48 48" x="0px" y="0px"><title>video music player</title><path d="M41,14H7a2,2,0,0,0-2,2V32a2,2,0,0,0,2,2H19a2,2,0,0,0,1.79-1.1l2.29-4.58a1,1,0,0,1,1.84,0l2.29,4.58A2,2,0,0,0,29,34H41a2,2,0,0,0,2-2V16A2,2,0,0,0,41,14ZM39,30H30.24L28.5,26.54a5,5,0,0,0-9,0L17.76,30H9V18H39Z"></path><rect x="11" y="21.01" width="6" height="6" rx="2.87" ry="2.87"></rect><rect x="31" y="21.01" width="6" height="6" rx="2.87" ry="2.87"></rect></svg>